<svg width="275" height="434" viewBox="0 0 275 434" fill="none" xmlns="http://www.w3.org/2000/svg">
<circle cx="135.5" cy="229.572" r="119.5" fill="#A2F0FF"/>
<path d="M16 229.072H255L248.5 320.072L255 399.072H16L25.5 320.072L16 229.072Z" fill="#A2F0FF"/>
<circle cx="50" cy="399.072" r="34" fill="#A2F0FF"/>
<circle cx="221" cy="399.072" r="34" fill="#A2F0FF"/>
<circle cx="109" cy="399.072" r="34" fill="#A2F0FF"/>
<circle cx="161" cy="399.072" r="34" fill="#A2F0FF"/>
<path d="M170.148 177.378C165.644 176.062 161.326 175.78 157.995 176.367C154.63 176.961 152.439 178.401 151.864 180.371C151.288 182.341 152.359 184.734 154.876 187.046C157.366 189.334 161.157 191.42 165.662 192.736C170.166 194.052 174.485 194.334 177.815 193.747C181.18 193.154 183.371 191.714 183.947 189.744C184.522 187.773 183.451 185.38 180.935 183.069C178.444 180.781 174.653 178.694 170.148 177.378Z" stroke="#77D3E0"/>
<path d="M96.1291 174.825C91.4768 175.44 87.4124 176.926 84.6027 178.808C81.7636 180.71 80.3414 182.912 80.6106 184.947C80.8798 186.982 82.8257 188.739 86.0616 189.837C89.264 190.924 93.575 191.302 98.2273 190.687C102.88 190.071 106.944 188.585 109.754 186.703C112.593 184.801 114.015 182.599 113.746 180.564C113.477 178.529 111.531 176.772 108.295 175.674C105.092 174.587 100.781 174.209 96.1291 174.825Z" stroke="#77D3E0"/>
<circle cx="71.1148" cy="75.8798" r="33.25" transform="rotate(-1.26627 71.1148 75.8798)" fill="#CBE3ED"/>
<circle cx="103.622" cy="41.9031" r="33.25" transform="rotate(-1.26627 103.622 41.9031)" fill="#CBE3ED"/>
<circle cx="150.86" cy="40.8589" r="33.25" transform="rotate(-1.26627 150.86 40.8589)" fill="#CBE3ED"/>
<circle cx="188.24" cy="68.9148" r="33.25" transform="rotate(-1.26627 188.24 68.9148)" fill="#CBE3ED"/>
<circle cx="109.683" cy="78.5281" r="33.25" transform="rotate(-1.26627 109.683 78.5281)" fill="#CBE3ED"/>
<circle cx="151.673" cy="77.6" r="33.25" transform="rotate(-1.26627 151.673 77.6)" fill="#CBE3ED"/>
<circle cx="65.7115" cy="68.9975" r="33.25" transform="rotate(-1.26627 65.7115 68.9975)" fill="white"/>
<circle cx="98.2185" cy="35.0209" r="33.25" transform="rotate(-1.26627 98.2185 35.0209)" fill="white"/>
<circle cx="145.457" cy="33.9767" r="33.25" transform="rotate(-1.26627 145.457 33.9767)" fill="white"/>
<circle cx="182.836" cy="62.0325" r="33.25" transform="rotate(-1.26627 182.836 62.0325)" fill="white"/>
<circle cx="104.279" cy="71.6459" r="33.25" transform="rotate(-1.26627 104.279 71.6459)" fill="white"/>
<circle cx="146.269" cy="70.7177" r="33.25" transform="rotate(-1.26627 146.269 70.7177)" fill="white"/>
<path d="M82 141.235C82 146.115 77.9706 150.072 73 150.072C68.0294 150.072 64 146.115 64 141.235C64 136.354 70 114.723 73.6 112.072C77.8 113.839 82 136.354 82 141.235Z" fill="#97C4E0"/>
<path d="M158 135.863C158 139.844 154.642 143.072 150.5 143.072C146.358 143.072 143 139.844 143 135.863C143 131.881 148 114.235 151 112.072C154.5 113.514 158 131.881 158 135.863Z" fill="#97C4E0"/>
<path d="M118 165.328C118 169.052 115.09 172.072 111.5 172.072C107.91 172.072 105 169.052 105 165.328C105 161.603 109.333 145.095 111.933 143.072C114.967 144.421 118 161.603 118 165.328Z" fill="#97C4E0"/>
<path d="M189 150.328C189 154.052 186.09 157.072 182.5 157.072C178.91 157.072 176 154.052 176 150.328C176 146.603 180.333 130.095 182.933 128.072C185.967 129.421 189 146.603 189 150.328Z" fill="#97C4E0"/>
<path d="M275 320.328C275 324.052 272.09 327.072 268.5 327.072C264.91 327.072 262 324.052 262 320.328C262 316.603 266.333 300.095 268.933 298.072C271.967 299.421 275 316.603 275 320.328Z" fill="#97C4E0"/>
<path d="M13 279.328C13 283.052 10.0899 286.072 6.5 286.072C2.91015 286.072 0 283.052 0 279.328C0 275.603 4.33333 259.095 6.93333 257.072C9.96667 258.421 13 275.603 13 279.328Z" fill="#97C4E0"/>
<path d="M252 178.49C252 181.573 249.985 184.072 247.5 184.072C245.015 184.072 243 181.573 243 178.49C243 175.408 246 161.746 247.8 160.072C249.9 161.188 252 175.408 252 178.49Z" fill="#97C4E0"/>
<path d="M218.604 205.137C216.747 211.163 219.223 211.586 225.249 213.443C231.275 215.3 237.666 211.921 239.523 205.895C241.38 199.869 238.2 193.569 232.174 191.712C237.422 213.452 223.372 214.152 218.604 205.137Z" fill="#845151"/>
<path d="M209.424 202.278C207.567 208.304 210.043 208.727 216.069 210.584C222.095 212.441 228.486 209.061 230.343 203.035C232.2 197.009 229.02 190.71 222.994 188.853C228.242 210.592 214.192 211.293 209.424 202.278Z" fill="#845151"/>
<path d="M205.208 202.978C203.936 207.105 205.841 207.459 210.499 208.895C215.157 210.331 219.964 208.148 221.236 204.02C222.508 199.892 219.918 195.451 215.261 194.015C219.815 209.202 209.08 209.34 205.208 202.978Z" fill="#845151"/>
<path d="M49.2817 205.137C51.139 211.163 48.663 211.586 42.6369 213.443C36.6108 215.3 30.2201 211.921 28.3628 205.895C26.5056 199.869 29.6858 193.569 35.7119 191.712C30.4644 213.452 44.5143 214.152 49.2817 205.137Z" fill="#845151"/>
<path d="M58.4617 202.278C60.319 208.304 57.843 208.727 51.8169 210.584C45.7908 212.441 39.4001 209.061 37.5428 203.035C35.6856 197.009 38.8657 190.71 44.8918 188.853C39.6444 210.592 53.6943 211.293 58.4617 202.278Z" fill="#845151"/>
<path d="M62.6779 202.978C63.9501 207.105 62.0448 207.459 57.387 208.895C52.7292 210.331 47.9221 208.148 46.6499 204.02C45.3777 199.892 47.9674 195.451 52.6252 194.015C48.0711 209.202 58.8063 209.34 62.6779 202.978Z" fill="#845151"/>
<g filter="url(#filter0_d_9_223)">
<path d="M42.4139 220.056C38.8225 181.832 59.1724 207.514 81.3216 207.514C103.471 207.514 126.215 181.832 122.624 220.056C122.624 242.156 104.668 260.072 82.5188 260.072C60.3695 260.072 42.4139 242.156 42.4139 220.056Z" fill="url(#paint0_linear_9_223)"/>
</g>
<g filter="url(#filter1_d_9_223)">
<path d="M145.414 220.056C141.822 181.832 162.172 207.514 184.322 207.514C206.471 207.514 229.215 181.832 225.624 220.056C225.624 242.156 207.668 260.072 185.519 260.072C163.37 260.072 145.414 242.156 145.414 220.056Z" fill="url(#paint1_linear_9_223)"/>
</g>
<ellipse cx="72.2291" cy="233.414" rx="21.5" ry="23" transform="rotate(-13.3479 72.2291 233.414)" fill="url(#paint2_linear_9_223)"/>
<ellipse cx="173.229" cy="233.414" rx="21.5" ry="23" transform="rotate(-13.3479 173.229 233.414)" fill="url(#paint3_linear_9_223)"/>
<ellipse cx="70.7137" cy="235.27" rx="13.5" ry="15.5" transform="rotate(-13.3479 70.7137 235.27)" fill="url(#paint4_linear_9_223)"/>
<ellipse cx="171.714" cy="235.27" rx="13.5" ry="15.5" transform="rotate(-13.3479 171.714 235.27)" fill="url(#paint5_linear_9_223)"/>
<ellipse cx="74.7686" cy="244.117" rx="14.5" ry="11" transform="rotate(-13.3479 74.7686 244.117)" fill="#BFF8FF" fill-opacity="0.44"/>
<ellipse cx="175.769" cy="244.117" rx="14.5" ry="11" transform="rotate(-13.3479 175.769 244.117)" fill="#BFF8FF" fill-opacity="0.44"/>
<circle cx="75.2135" cy="220.285" r="3.5" transform="rotate(-13.3479 75.2135 220.285)" fill="#FFF9F1"/>
<circle cx="176.213" cy="220.285" r="3.5" transform="rotate(-13.3479 176.213 220.285)" fill="#FFF9F1"/>
<path d="M58.4961 236.504C58.8149 237.848 58.4198 239.092 57.6138 239.283C56.8077 239.474 55.8959 238.54 55.5772 237.197C55.2584 235.854 55.6534 234.609 56.4595 234.418C57.2655 234.227 58.1774 235.161 58.4961 236.504Z" fill="#FFF9F1"/>
<path d="M159.496 236.504C159.815 237.848 159.42 239.092 158.614 239.283C157.808 239.474 156.896 238.54 156.577 237.197C156.258 235.854 156.653 234.609 157.459 234.418C158.266 234.227 159.177 235.161 159.496 236.504Z" fill="#FFF9F1"/>
<defs>
<filter id="filter0_d_9_223" x="42" y="194.572" width="92.5" height="72" filterUnits="userSpaceOnUse" color-interpolation-filters="sRGB">
<feFlood flood-opacity="0" result="BackgroundImageFix"/>
<feColorMatrix in="SourceAlpha" type="matrix" values="0 0 0 0 0 0 0 0 0 0 0 0 0 0 0 0 0 0 127 0" result="hardAlpha"/>
<feOffset dx="6" dy="1"/>
<feGaussianBlur stdDeviation="2.75"/>
<feComposite in2="hardAlpha" operator="out"/>
<feColorMatrix type="matrix" values="0 0 0 0 0.752087 0 0 0 0 0.503312 0 0 0 0 0.503312 0 0 0 0.18 0"/>
<feBlend mode="normal" in2="BackgroundImageFix" result="effect1_dropShadow_9_223"/>
<feBlend mode="normal" in="SourceGraphic" in2="effect1_dropShadow_9_223" result="shape"/>
</filter>
<filter id="filter1_d_9_223" x="145" y="194.572" width="92.5" height="72" filterUnits="userSpaceOnUse" color-interpolation-filters="sRGB">
<feFlood flood-opacity="0" result="BackgroundImageFix"/>
<feColorMatrix in="SourceAlpha" type="matrix" values="0 0 0 0 0 0 0 0 0 0 0 0 0 0 0 0 0 0 127 0" result="hardAlpha"/>
<feOffset dx="6" dy="1"/>
<feGaussianBlur stdDeviation="2.75"/>
<feComposite in2="hardAlpha" operator="out"/>
<feColorMatrix type="matrix" values="0 0 0 0 0.752087 0 0 0 0 0.503312 0 0 0 0 0.503312 0 0 0 0.18 0"/>
<feBlend mode="normal" in2="BackgroundImageFix" result="effect1_dropShadow_9_223"/>
<feBlend mode="normal" in="SourceGraphic" in2="effect1_dropShadow_9_223" result="shape"/>
</filter>
<linearGradient id="paint0_linear_9_223" x1="82" y1="216.072" x2="86" y2="302.072" gradientUnits="userSpaceOnUse">
<stop stop-color="white"/>
<stop offset="1" stop-color="#D2E6FA"/>
</linearGradient>
<linearGradient id="paint1_linear_9_223" x1="185" y1="216.072" x2="189" y2="302.072" gradientUnits="userSpaceOnUse">
<stop stop-color="white"/>
<stop offset="1" stop-color="#D2E6FA"/>
</linearGradient>
<linearGradient id="paint2_linear_9_223" x1="72.7291" y1="247.414" x2="72.0093" y2="210.415" gradientUnits="userSpaceOnUse">
<stop stop-color="#ACF1FF"/>
<stop offset="1" stop-color="#C8A0FA"/>
</linearGradient>
<linearGradient id="paint3_linear_9_223" x1="173.729" y1="247.414" x2="173.009" y2="210.415" gradientUnits="userSpaceOnUse">
<stop stop-color="#ACF1FF"/>
<stop offset="1" stop-color="#C8A0FA"/>
</linearGradient>
<linearGradient id="paint4_linear_9_223" x1="70.1267" y1="230.501" x2="70.7322" y2="250.769" gradientUnits="userSpaceOnUse">
<stop stop-color="#916DC6"/>
<stop offset="1" stop-color="#A4FFF7"/>
</linearGradient>
<linearGradient id="paint5_linear_9_223" x1="171.127" y1="230.501" x2="171.732" y2="250.769" gradientUnits="userSpaceOnUse">
<stop stop-color="#916DC6"/>
<stop offset="1" stop-color="#A4FFF7"/>
</linearGradient>
</defs>
</svg>
