<svg width="299" height="456" viewBox="0 0 299 456" fill="none" xmlns="http://www.w3.org/2000/svg">
<g filter="url(#filter0_d_9_222)">
<path d="M28.2874 363.725C27.6729 360.553 28.3268 356.226 28.7306 354.459L26.7098 348.652C26.1485 347.038 21.2128 343.954 19.0444 341.235C21.3358 342.278 28.8464 348.556 29.5814 339.339C30.2137 334.13 26.9462 337.035 24.5709 331.966C22.1956 326.896 27.8739 325.649 29.6465 321.96C31.4191 318.272 28.9729 320.025 20.8249 314.174C12.6769 308.323 23.7201 313.712 32.3704 315.736C41.0207 317.76 34.4266 318.132 41.2688 327.256C48.111 336.38 45.5112 330.665 48.95 333.522C52.3889 336.378 51.5085 332.092 49.3755 325.962C45.7121 322.46 47.207 323.243 41.0916 310.938C34.923 303.75 37.186 308.497 37.9482 301.904C38.7104 295.312 36.7133 298.356 41.7711 290.056C46.3858 291.022 44.6664 289.594 47.1303 286.135C49.5942 282.677 55.497 282.075 61.6597 278.707C67.8225 275.339 64.555 278.245 58.079 289.495C51.6031 300.746 58.2681 293.552 56.271 296.595C54.2738 299.638 56.72 297.885 60.2002 307.887L66.2624 325.309C69.8549 335.633 72.1474 326.412 75.6217 325.857C79.096 325.303 72.7029 317.469 70.4576 311.017C68.2123 304.564 69.784 309.081 75.8345 305.39C81.885 301.7 72.9866 290.18 69.9968 288.614C67.007 287.048 75.2082 287.782 78.7771 289.255C82.3459 290.729 86.1215 294.553 93.206 302.617C100.29 310.68 93.1528 307.733 92.5205 312.943C91.8883 318.152 96.6743 324.88 95.8884 322.621C95.1026 320.363 99.3627 322.067 102.406 318.516C105.449 314.965 101.332 315.941 110.288 316.576C130.968 318.042 126.247 327.309 124.173 326.619C122.099 325.928 115.688 319.8 111.954 323.121C108.22 326.442 111.582 325.564 112.929 329.436C114.276 333.307 129.207 342.843 132.179 346.114C135.151 349.386 135.807 353.027 127.984 360.406C120.161 367.785 94.9075 372.498 83.7755 375.638C72.6436 378.778 42.6218 375.058 37.2035 373.539C31.7853 372.02 29.0555 367.688 28.2874 363.725Z" fill="#FB5858"/>
<path d="M28.7306 354.459C28.3268 356.226 27.6729 360.553 28.2874 363.725C29.0555 367.688 31.7853 372.02 37.2035 373.539C42.6218 375.058 72.6436 378.778 83.7755 375.638C94.9075 372.498 120.161 367.785 127.984 360.406C135.807 353.027 135.151 349.386 132.179 346.114C129.207 342.843 114.276 333.307 112.929 329.436C111.582 325.564 108.22 326.442 111.954 323.121C115.688 319.8 122.099 325.928 124.173 326.619C126.247 327.309 130.968 318.042 110.288 316.576C101.332 315.941 105.449 314.965 102.406 318.516C99.3627 322.067 95.1026 320.363 95.8884 322.621C96.6743 324.88 91.8883 318.152 92.5205 312.943C93.1528 307.733 100.29 310.68 93.206 302.617C86.1215 294.553 82.3459 290.729 78.7771 289.255C75.2082 287.782 67.007 287.048 69.9968 288.614C72.9866 290.18 81.885 301.7 75.8345 305.39C69.784 309.081 68.2123 304.564 70.4576 311.017C72.7029 317.469 79.096 325.303 75.6217 325.857C72.1474 326.412 69.8549 335.633 66.2624 325.309C62.67 314.985 63.6804 317.888 60.2002 307.887C56.72 297.885 54.2738 299.638 56.271 296.595C58.2681 293.552 51.6031 300.746 58.079 289.495C64.555 278.245 67.8225 275.339 61.6597 278.707C55.497 282.075 49.5942 282.677 47.1303 286.135C44.6664 289.594 46.3858 291.022 41.7711 290.056C36.7133 298.356 38.7104 295.312 37.9482 301.904C37.186 308.497 34.923 303.75 41.0916 310.938C47.207 323.243 45.7121 322.46 49.3755 325.962C51.5085 332.092 52.3889 336.378 48.95 333.522C45.5112 330.665 48.111 336.38 41.2688 327.256C34.4266 318.132 41.0207 317.76 32.3704 315.736C23.7201 313.712 12.6769 308.323 20.8249 314.174C28.9729 320.025 31.4191 318.272 29.6465 321.96C27.8739 325.649 22.1956 326.896 24.5709 331.966C26.9462 337.035 30.2137 334.13 29.5814 339.339C28.7838 349.342 20.0055 341.095 18.5795 341.095M19.0444 341.235C21.2128 343.954 26.1485 347.038 26.7098 348.652C27.2711 350.265 28.506 353.814 28.8428 354.781" stroke="#D34A4A"/>
</g>
<g filter="url(#filter1_d_9_222)">
<path d="M120.644 352.429C119.371 349.933 116.528 346.902 115.265 345.698L113.598 340.905C113.134 339.573 115.11 336.061 115.235 333.512C114.106 334.855 111.962 341.369 106.394 334.747C103.086 331.058 107.091 332.387 106.088 328.049C105.085 323.712 100.198 324.211 96.874 321.931C93.5503 319.651 96.3181 320.333 99.1664 313.976C102.015 307.618 96.7693 314.358 91.4634 318.017C86.1574 321.675 91.2458 320.3 91.1491 328.748C91.0524 337.196 89.8639 332.326 88.8728 335.296C87.8817 338.265 86.1977 334.879 84.4371 329.82C85.2429 326.318 84.562 327.27 82.3865 316.655C83.0391 309.805 83.9497 313.876 79.7919 309.199C75.6342 304.522 78.7727 306.27 70.5015 301.406C67.6089 303.274 68.1044 301.789 64.3939 299.852C60.6834 297.914 55.9817 298.946 49.58 298.001C43.1782 297.055 47.1828 298.383 58.113 305.071C69.0431 311.758 60.1838 308.113 63.3222 309.861C66.4606 311.608 63.6928 310.926 66.5654 319.181L71.5691 333.561C74.5343 342.082 67.8102 335.848 64.9337 336.307C62.0571 336.766 62.5245 329.383 60.6712 324.058C58.818 318.732 60.1152 322.46 53.6208 321.248C47.1264 320.036 47.4407 309.305 48.8024 307.401C50.1641 305.497 44.4876 308.09 42.6464 310.07C40.8052 312.051 40.0921 315.819 39.238 323.545C38.3839 331.27 42.0662 327.309 45.3739 330.998C48.6815 334.686 48.8023 340.85 48.1537 338.986C47.5051 337.122 45.2771 339.446 41.0872 337.585C36.8972 335.724 40.4797 335.416 34.1899 338.124C19.666 344.378 28.2152 350.041 29.3755 349.012C30.5358 347.984 31.9458 341.855 36.5226 343.373C41.0993 344.891 38.13 345.084 39.242 348.28C40.3539 351.475 34.488 362.25 34.069 365.409C33.65 368.568 35.1487 371.421 44.9669 374.913C54.785 378.404 76.0652 375.569 86.0244 375.103C95.9836 374.637 116.2 364.382 119.387 361.905C122.574 359.429 122.235 355.548 120.644 352.429Z" fill="#FB9158"/>
</g>
<g filter="url(#filter2_d_9_222)">
<path d="M45.6044 364.56C45.2604 362.695 45.7188 360.142 45.991 359.098L44.8042 355.688C44.4745 354.74 41.4428 352.95 40.1272 351.36C41.5393 351.962 46.1338 355.619 46.7012 350.184C47.1567 347.112 45.0904 348.842 43.6743 345.868C42.2583 342.894 45.8036 342.128 46.9499 339.944C48.0962 337.761 46.5543 338.808 41.5585 335.405C36.5626 332.003 43.3641 335.117 48.7181 336.262C54.0721 337.407 49.9678 337.663 54.1125 343.001C58.2573 348.339 56.7094 344.986 58.8132 346.65C60.917 348.315 60.421 345.794 59.1683 342.194C56.9326 340.151 57.8527 340.604 54.1979 333.387C50.4488 329.185 51.7989 331.97 52.3518 328.082C52.9047 324.193 51.6266 325.997 54.8707 321.079C57.7282 321.623 56.6763 320.791 58.2497 318.74C59.8231 316.688 63.5003 316.301 67.3723 314.283C71.2443 312.265 69.1779 313.995 65.0167 320.659C60.8555 327.324 65.0857 323.048 63.8075 324.852C62.5293 326.656 64.0712 325.61 66.1151 331.484L69.6755 341.716C71.7853 347.779 73.3212 342.334 75.488 341.988C77.6547 341.642 73.7737 337.061 72.4551 333.272C71.1364 329.482 72.0595 332.135 75.8656 329.927C79.6716 327.719 74.2772 320.981 72.4371 320.074C70.597 319.168 75.6872 319.555 77.8884 320.404C80.0897 321.252 82.3913 323.485 86.6994 328.197C91.0074 332.91 86.605 331.212 86.1495 334.285C85.6939 337.358 88.589 341.296 88.1274 339.97C87.6659 338.643 90.2942 339.624 92.2287 337.515C94.1632 335.406 91.5919 336.004 97.1526 336.329C109.993 337.078 106.947 342.565 105.665 342.169C104.384 341.774 100.472 338.199 98.1101 340.176C95.7486 342.153 97.8494 341.617 98.6406 343.891C99.4318 346.165 108.601 351.701 110.409 353.612C112.218 355.524 112.582 357.666 107.63 362.056C102.678 366.447 86.9198 369.363 79.961 371.275C73.0021 373.186 54.3809 371.159 51.0303 370.294C47.6798 369.429 46.0345 366.891 45.6044 364.56Z" fill="#FBAF58"/>
</g>
<g filter="url(#filter3_d_9_222)">
<path d="M284.67 363.72C284.649 361.026 283.426 357.471 282.817 356.031L283.494 351.024C283.682 349.633 287.131 346.657 288.426 344.213C286.762 345.27 281.769 351.119 279.689 343.494C278.341 339.203 281.425 341.358 282.505 336.937C283.585 332.516 278.84 331.941 276.825 329.011C274.81 326.08 277.051 327.341 282.623 321.796C288.195 316.251 280.232 321.648 273.639 324.044C267.046 326.44 272.382 326.21 268.384 334.378C264.386 342.545 265.541 337.567 263.252 340.231C260.964 342.894 260.974 339.248 261.689 333.962C264.053 330.743 262.984 331.518 265.885 320.758C269.657 314.26 268.615 318.403 266.938 312.969C265.262 307.535 267.352 309.909 261.963 303.403C258.427 304.587 259.572 303.255 257.041 300.573C254.51 297.892 249.69 297.873 244.215 295.57C238.739 293.267 241.824 295.422 248.825 304.271C255.826 313.121 249.33 307.669 251.42 310.043C253.511 312.416 251.27 311.155 250.104 319.779L248.073 334.801C246.869 343.702 243.543 336.203 240.674 336.025C237.805 335.847 241.652 328.792 242.404 323.228C243.156 317.665 242.63 321.559 237.192 318.978C231.754 316.396 237.009 306.063 239.148 304.513C241.286 302.962 234.844 304.245 232.227 305.766C229.61 307.287 227.209 310.785 222.845 318.088C218.482 325.391 223.716 322.349 225.065 326.641C226.413 330.932 223.673 336.933 223.936 334.986C224.2 333.039 221.067 334.808 218.058 332.097C215.049 329.386 218.501 329.863 211.438 331.125C195.13 334.041 200.407 341.381 201.954 340.635C203.502 339.89 207.639 334.256 211.164 336.718C214.689 339.181 211.857 338.725 211.406 342.063C210.955 345.401 200.552 354.574 198.704 357.545C196.855 360.516 196.92 363.605 204.373 369.117C211.825 374.629 232.792 376.49 242.206 378.196C251.62 379.903 275.036 374.343 279.125 372.633C283.214 370.923 284.697 367.088 284.67 363.72Z" fill="#FB5858"/>
<path d="M282.817 356.031C283.426 357.471 284.649 361.026 284.67 363.72C284.697 367.088 283.214 370.923 279.125 372.633C275.036 374.343 251.62 379.903 242.206 378.196C232.792 376.49 211.825 374.629 204.373 369.117C196.92 363.605 196.855 360.516 198.704 357.545C200.552 354.574 210.955 345.401 211.406 342.063C211.857 338.725 214.689 339.181 211.164 336.718C207.639 334.256 203.502 339.89 201.954 340.635C200.407 341.381 195.13 334.041 211.438 331.125C218.501 329.863 215.049 329.386 218.058 332.097C221.067 334.808 224.2 333.039 223.936 334.986C223.673 336.933 226.413 330.932 225.065 326.641C223.716 322.349 218.482 325.391 222.846 318.088C227.209 310.785 229.61 307.287 232.227 305.766C234.844 304.245 241.286 302.962 239.148 304.513C237.009 306.063 231.754 316.396 237.192 318.978C242.63 321.559 243.156 317.665 242.404 323.228C241.652 328.792 237.805 335.847 240.674 336.025C243.543 336.203 246.869 343.702 248.073 334.801C249.277 325.899 248.938 328.402 250.104 319.779C251.27 311.155 253.511 312.416 251.42 310.043C249.33 307.669 255.826 313.121 248.825 304.271C241.824 295.422 238.739 293.267 244.215 295.57C249.69 297.873 254.51 297.892 257.041 300.573C259.572 303.255 258.427 304.587 261.963 303.403C267.352 309.909 265.262 307.535 266.938 312.969C268.615 318.403 269.657 314.26 265.885 320.758C262.984 331.518 264.053 330.743 261.689 333.962C260.974 339.248 260.964 342.894 263.252 340.231C265.541 337.567 264.386 342.545 268.384 334.378C272.382 326.21 267.046 326.44 273.639 324.044C280.232 321.648 288.195 316.251 282.623 321.796C277.051 327.341 274.81 326.08 276.825 329.011C278.84 331.941 283.585 332.516 282.505 336.937C281.425 341.358 278.341 339.203 279.689 343.494C281.946 351.769 287.635 344.174 288.775 344.058M288.426 344.213C287.131 346.657 283.682 349.633 283.494 351.024C283.306 352.415 282.892 355.475 282.779 356.309" stroke="#D34A4A"/>
</g>
<g filter="url(#filter4_d_9_222)">
<path d="M208.954 361.865C209.569 359.68 211.353 356.92 212.168 355.813L212.727 351.68C212.882 350.532 210.733 347.766 210.221 345.65C211.341 346.677 214.11 351.933 217.494 345.956C219.543 342.61 216.554 344.045 216.655 340.347C216.756 336.649 220.746 336.665 223.036 334.491C225.326 332.318 223.222 333.114 219.915 328.046C216.607 322.979 221.895 328.169 226.732 330.785C231.568 333.4 227.275 332.671 228.719 339.706C230.164 346.742 230.327 342.584 231.6 344.979C232.873 347.373 233.673 344.413 234.263 340.05C233.051 337.197 233.75 337.935 233.773 328.906C232.142 323.248 232.073 326.717 234.642 322.477C237.212 318.237 234.984 319.951 240.814 315.219C243.43 316.539 242.794 315.342 245.449 313.423C248.104 311.504 252.032 311.979 257.001 310.667C261.97 309.354 258.981 310.79 251.318 317.26C243.656 323.731 250.154 319.966 247.926 321.68C245.698 323.394 247.802 322.599 246.839 329.717L245.163 342.116C244.169 349.463 248.54 343.714 250.916 343.862C253.291 344.009 251.723 337.892 252.344 333.3C252.965 328.708 252.53 331.922 257.53 330.38C262.529 328.838 260.542 319.916 259.144 318.44C257.746 316.964 262.707 318.661 264.501 320.162C266.294 321.662 267.475 324.746 269.408 331.117C271.341 337.488 267.755 334.487 265.705 337.833C263.656 341.179 264.557 346.329 264.774 344.721C264.991 343.114 267.149 344.869 270.2 342.974C273.252 341.08 270.335 341.116 275.806 342.859C288.437 346.884 282.514 352.305 281.419 351.543C280.325 350.78 278.205 345.786 274.789 347.427C271.373 349.067 273.78 348.985 273.407 351.74C273.035 354.495 279.471 362.998 280.318 365.598C281.164 368.197 280.426 370.698 273.137 374.414C265.847 378.129 248.363 377.507 240.32 377.934C232.277 378.362 214.444 371.467 211.493 369.663C208.543 367.859 208.186 364.596 208.954 361.865Z" fill="#FB9158"/>
</g>
<g filter="url(#filter5_d_9_222)">
<path d="M270.951 365.834C270.925 364.251 270.145 362.16 269.758 361.312L270.156 358.372C270.266 357.555 272.402 355.814 273.197 354.38C272.165 354.998 269.081 358.424 267.748 353.939C266.886 351.414 268.819 352.687 269.471 350.092C270.123 347.496 267.162 347.148 265.892 345.422C264.622 343.695 266.024 344.441 269.471 341.196C272.917 337.95 267.98 341.103 263.881 342.496C259.783 343.889 263.108 343.766 260.656 348.556C258.204 353.347 258.9 350.424 257.486 351.984C256.072 353.544 256.061 351.402 256.481 348.297C257.939 346.411 257.276 346.864 259.032 340.548C261.352 336.738 260.722 339.17 259.651 335.973C258.579 332.777 259.894 334.176 256.502 330.341C254.304 331.029 255.011 330.249 253.421 328.668C251.83 327.086 248.825 327.065 245.401 325.699C241.977 324.333 243.91 325.606 248.317 330.822C252.725 336.038 248.649 332.82 249.963 334.219C251.278 335.619 249.875 334.873 249.19 339.937L247.997 348.76C247.291 353.988 245.181 349.573 243.391 349.462C241.602 349.351 243.965 345.214 244.407 341.947C244.849 338.679 244.54 340.967 241.138 339.438C237.735 337.909 240.961 331.848 242.286 330.942C243.612 330.036 239.602 330.776 237.978 331.663C236.354 332.551 234.874 334.601 232.19 338.883C229.506 343.164 232.754 341.389 233.615 343.913C234.477 346.438 232.798 349.958 232.953 348.815C233.107 347.671 231.163 348.704 229.274 347.104C227.385 345.504 229.539 345.792 225.143 346.518C214.992 348.195 218.317 352.519 219.278 352.085C220.239 351.65 222.79 348.349 224.999 349.804C227.209 351.259 225.441 350.985 225.176 352.945C224.911 354.906 218.471 360.272 217.334 362.014C216.196 363.755 216.251 365.571 220.924 368.826C225.596 372.082 238.675 373.222 244.551 374.246C250.428 375.27 264.998 372.055 267.538 371.059C270.079 370.064 270.985 367.813 270.951 365.834Z" fill="#FBAF58"/>
</g>
<circle cx="152.5" cy="252" r="119.5" fill="#FF6164"/>
<path d="M33 251.5H272L265.5 342.5L272 421.5H33L42.5 342.5L33 251.5Z" fill="#FF6164"/>
<circle cx="67" cy="421.5" r="34" fill="#FF6164"/>
<circle cx="238" cy="421.5" r="34" fill="#FF6164"/>
<circle cx="126" cy="421.5" r="34" fill="#FF6164"/>
<circle cx="178" cy="421.5" r="34" fill="#FF6164"/>
<g filter="url(#filter6_d_9_222)">
<path d="M57.4143 236.849C53.8228 198.625 74.1538 223.389 96.3031 223.389C114.803 225.889 138.395 222.165 134.803 260.389C134.803 282.489 119.668 276.864 97.5191 276.864C75.3698 276.864 57.4143 258.949 57.4143 236.849Z" fill="url(#paint0_linear_9_222)"/>
</g>
<g filter="url(#filter7_d_9_222)">
<path d="M244.755 236.849C248.346 198.625 228.015 223.389 205.866 223.389C187.366 225.889 163.774 222.165 167.366 260.389C167.366 282.489 182.5 276.864 204.65 276.864C226.799 276.864 244.755 258.949 244.755 236.849Z" fill="url(#paint1_linear_9_222)"/>
</g>
<ellipse cx="99.5" cy="246.5" rx="21.5" ry="23" fill="url(#paint2_linear_9_222)"/>
<ellipse cx="190.5" cy="248.5" rx="21.5" ry="23" fill="url(#paint3_linear_9_222)"/>
<ellipse cx="97.5" cy="244" rx="13.5" ry="15.5" fill="url(#paint4_linear_9_222)"/>
<ellipse cx="188.5" cy="246" rx="13.5" ry="15.5" fill="url(#paint5_linear_9_222)"/>
<ellipse cx="99.5" cy="257.5" rx="14.5" ry="11" fill="#FFC5BF" fill-opacity="0.44"/>
<ellipse cx="190.5" cy="259.5" rx="14.5" ry="11" fill="#FFC5BF" fill-opacity="0.44"/>
<circle cx="106.5" cy="232" r="3.5" fill="#FFF9F1"/>
<circle cx="197.5" cy="234" r="3.5" fill="#FFF9F1"/>
<path d="M85 244C85 245.381 84.3284 246.5 83.5 246.5C82.6716 246.5 82 245.381 82 244C82 242.619 82.6716 241.5 83.5 241.5C84.3284 241.5 85 242.619 85 244Z" fill="#FFF9F1"/>
<path d="M176 246C176 247.381 175.328 248.5 174.5 248.5C173.672 248.5 173 247.381 173 246C173 244.619 173.672 243.5 174.5 243.5C175.328 243.5 176 244.619 176 246Z" fill="#FFF9F1"/>
<path d="M117.849 203.025C122.107 204.999 125.544 207.628 127.665 210.262C129.808 212.923 130.51 215.45 129.646 217.312C128.783 219.174 126.402 220.271 122.986 220.355C119.605 220.438 115.377 219.514 111.12 217.541C106.862 215.567 103.425 212.937 101.304 210.303C99.1606 207.642 98.4594 205.116 99.3227 203.253C100.186 201.391 102.567 200.294 105.983 200.21C109.364 200.127 113.592 201.051 117.849 203.025Z" stroke="#E23E41"/>
<path d="M175.826 206.193C171.568 208.167 168.131 210.797 166.01 213.43C163.867 216.092 163.166 218.618 164.029 220.48C164.892 222.342 167.273 223.439 170.69 223.523C174.07 223.607 178.298 222.683 182.556 220.709C186.813 218.735 190.25 216.105 192.371 213.472C194.515 210.81 195.216 208.284 194.353 206.422C193.489 204.56 191.108 203.463 187.692 203.379C184.311 203.295 180.084 204.219 175.826 206.193Z" stroke="#E23E41"/>
<g filter="url(#filter8_d_9_222)">
<path d="M94.0802 139.237C94.6349 133.606 97.0849 126.331 98.2405 123.398V112.839C98.2405 109.906 93.859 103.235 92.4722 97.9551C94.6599 100.382 100.702 113.262 105.174 97.5865C107.948 88.7871 103.094 92.8935 102.401 83.5074C101.707 74.1213 108.641 73.5347 112.108 67.6684C115.575 61.8021 112.108 64.1486 105.174 51.8294C98.2405 39.5102 108.641 51.8294 117.655 57.6957C126.669 63.562 119.042 62.3888 123.202 79.9876C127.363 97.5865 126.669 87.0272 129.443 92.8935C132.217 98.7598 132.91 91.1336 132.91 79.9876C130.136 72.9481 131.523 74.708 129.443 51.8294C125.283 37.7503 125.976 46.5498 129.443 35.4038C132.91 24.2579 129.443 28.9509 138.457 16.0451C143.311 18.9782 141.924 16.0451 146.084 10.7654C150.245 5.48574 157.178 6.07237 165.499 1.96597C173.82 -2.14043 168.966 1.96597 157.178 19.5648C145.391 37.1637 155.792 26.6044 152.325 31.2974C148.858 35.9905 152.325 33.6439 152.325 51.8294V83.5074C152.325 102.28 158.565 87.0272 162.726 87.0272C166.886 87.0272 162.726 71.7748 162.726 60.0422C162.726 48.3097 162.726 56.5225 171.046 51.8294C179.367 47.1364 173.82 24.8445 171.046 21.3247C168.273 17.8049 177.287 21.3247 180.754 24.8445C184.221 28.3643 186.994 35.9904 191.848 51.8294C196.702 67.6684 189.768 60.6289 186.994 69.4283C184.221 78.2277 186.994 91.1336 186.994 87.0272C186.994 82.9208 191.155 87.0272 196.008 81.7475C200.862 76.4679 195.806 77.0175 205.716 80.5743C228.597 88.7871 219.583 103.453 217.503 101.693C215.423 99.933 210.569 87.6138 205.022 92.3068C199.475 96.9999 203.636 96.4132 203.636 103.453C203.636 110.492 216.81 131.024 218.89 137.477C220.97 143.93 220.277 150.383 208.489 160.942C196.702 171.502 166.193 172.675 152.325 175.022C138.457 177.368 105.868 162.702 100.321 158.596C94.7736 154.49 93.3868 146.277 94.0802 139.237Z" fill="#FB5858"/>
<path d="M98.2405 123.398C97.0849 126.331 94.6349 133.606 94.0802 139.237C93.3868 146.277 94.7736 154.49 100.321 158.596C105.868 162.702 138.457 177.368 152.325 175.022C166.193 172.675 196.702 171.502 208.489 160.942C220.277 150.383 220.97 143.93 218.89 137.477C216.81 131.024 203.636 110.492 203.636 103.453C203.636 96.4132 199.475 96.9999 205.022 92.3068C210.569 87.6138 215.423 99.933 217.503 101.693C219.583 103.453 228.597 88.7871 205.716 80.5743C195.806 77.0175 200.862 76.4679 196.008 81.7475C191.155 87.0272 186.994 82.9208 186.994 87.0272C186.994 91.1336 184.221 78.2277 186.994 69.4283C189.768 60.6289 196.702 67.6684 191.848 51.8294C186.994 35.9904 184.221 28.3643 180.754 24.8445C177.287 21.3247 168.273 17.8049 171.046 21.3247C173.82 24.8445 179.367 47.1364 171.046 51.8294C162.726 56.5225 162.726 48.3097 162.726 60.0422C162.726 71.7748 166.886 87.0272 162.726 87.0272C158.565 87.0272 152.325 102.28 152.325 83.5074C152.325 64.7353 152.325 70.0149 152.325 51.8294C152.325 33.6439 148.858 35.9905 152.325 31.2974C155.792 26.6044 145.391 37.1637 157.178 19.5648C168.966 1.96597 173.82 -2.14043 165.499 1.96597C157.178 6.07237 150.245 5.48574 146.084 10.7654C141.924 16.0451 143.311 18.9782 138.457 16.0451C129.443 28.9509 132.91 24.2579 129.443 35.4038C125.976 46.5498 125.283 37.7503 129.443 51.8294C131.523 74.708 130.136 72.9481 132.91 79.9876C132.91 91.1336 132.217 98.7598 129.443 92.8935C126.669 87.0272 127.363 97.5865 123.202 79.9876C119.042 62.3888 126.669 63.562 117.655 57.6957C108.641 51.8294 98.2405 39.5102 105.174 51.8294C112.108 64.1486 115.575 61.8021 112.108 67.6684C108.641 73.5347 101.707 74.1213 102.401 83.5074C103.094 92.8935 107.948 88.7871 105.174 97.5865C100.321 114.599 93.6179 97.9776 92 97.5865M92.4722 97.9551C93.859 103.235 98.2405 109.906 98.2405 112.839C98.2405 115.772 98.2405 122.225 98.2405 123.985" stroke="#D34A4A"/>
</g>
<g filter="url(#filter9_d_9_222)">
<path d="M203.311 145.182C202.852 140.534 200.823 134.529 199.867 132.108V123.393C199.867 120.972 203.494 115.466 204.642 111.108C202.831 113.111 197.829 123.742 194.126 110.804C191.829 103.541 195.848 106.93 196.422 99.1827C196.996 91.4355 191.255 90.9513 188.385 86.1093C185.514 81.2672 188.385 83.2041 194.126 73.0358C199.867 62.8676 191.255 73.0358 183.792 77.8778C176.329 82.7199 182.644 81.7514 179.199 96.2775C175.755 110.804 176.329 102.088 174.032 106.93C171.736 111.772 171.162 105.477 171.162 96.2775C173.458 90.4671 172.31 91.9197 174.032 73.0358C177.477 61.415 176.903 68.678 174.032 59.4782C171.162 50.2783 174.032 54.152 166.569 43.4995C162.55 45.9205 163.699 43.4995 160.254 39.1417C156.809 34.7839 151.068 35.2681 144.179 31.8787C137.29 28.4893 141.309 31.8787 151.068 46.4047C160.828 60.9308 152.217 52.2151 155.087 56.0888C157.958 59.9624 155.087 58.0256 155.087 73.0358V99.1827C155.087 114.677 149.92 102.088 146.476 102.088C143.031 102.088 146.476 89.4987 146.476 79.8146C146.476 70.1306 146.476 76.9094 139.587 73.0358C132.697 69.1622 137.29 50.7625 139.587 47.8573C141.883 44.9521 134.42 47.8573 131.549 50.7625C128.679 53.6677 126.382 59.9624 122.364 73.0358C118.345 86.1093 124.086 80.2988 126.382 87.5619C128.679 94.8249 126.382 105.477 126.382 102.088C126.382 98.6985 122.938 102.088 118.919 97.7301C114.9 93.3723 119.086 93.826 110.882 96.7617C91.9366 103.541 99.3999 115.646 101.122 114.193C102.844 112.74 106.863 102.572 111.456 106.446C116.049 110.319 112.604 109.835 112.604 115.646C112.604 121.456 101.696 138.403 99.974 143.729C98.2517 149.055 98.8258 154.382 108.585 163.097C118.345 171.813 143.605 172.781 155.087 174.718C166.569 176.655 193.552 164.55 198.144 161.161C202.737 157.771 203.885 150.992 203.311 145.182Z" fill="#FB9158"/>
</g>
<g filter="url(#filter10_d_9_222)">
<path d="M113.395 145.44C113.741 142.132 115.269 137.86 115.99 136.137V129.936C115.99 128.213 113.257 124.295 112.392 121.195C113.757 122.62 117.525 130.184 120.314 120.978C122.044 115.81 119.017 118.222 118.585 112.709C118.152 107.197 122.476 106.852 124.639 103.407C126.801 99.9618 124.639 101.34 120.314 94.1048C115.99 86.8697 122.476 94.1048 128.098 97.5501C133.72 100.995 128.963 100.306 131.558 110.642C134.152 120.978 133.72 114.777 135.45 118.222C137.179 121.667 137.612 117.188 137.612 110.642C135.882 106.508 136.747 107.541 135.45 94.1048C132.855 85.8361 133.287 91.0041 135.45 84.458C137.612 77.912 135.45 80.6682 141.071 73.0886C144.098 74.8113 143.233 73.0886 145.828 69.9879C148.423 66.8871 152.747 67.2316 157.936 64.8199C163.125 62.4082 160.098 64.8199 152.747 75.1558C145.396 85.4916 151.882 79.2901 149.72 82.0463C147.558 84.8026 149.72 83.4245 149.72 94.1048V112.709C149.72 123.734 153.612 114.777 156.206 114.777C158.801 114.777 156.206 105.819 156.206 98.9282C156.206 92.0377 156.206 96.8611 161.396 94.1048C166.585 91.3486 163.125 78.2565 161.396 76.1894C159.666 74.1222 165.288 76.1894 167.45 78.2565C169.612 80.3237 171.342 84.8026 174.369 94.1048C177.396 103.407 173.071 99.2728 171.342 104.441C169.612 109.609 171.342 117.188 171.342 114.777C171.342 112.365 173.936 114.777 176.963 111.676C179.99 108.575 176.837 108.898 183.017 110.987C197.288 115.81 191.666 124.423 190.369 123.39C189.072 122.356 186.044 115.121 182.585 117.877C179.126 120.633 181.72 120.289 181.72 124.423C181.72 128.558 189.936 140.616 191.234 144.406C192.531 148.196 192.099 151.986 184.747 158.187C177.396 164.389 158.369 165.078 149.72 166.456C141.071 167.834 120.747 159.221 117.287 156.809C113.828 154.397 112.963 149.574 113.395 145.44Z" fill="#FBAF58"/>
</g>
<g filter="url(#filter11_d_9_222)">
<path d="M57.1868 165.724C56.7705 162.553 57.2135 158.226 57.487 156.459L56.1181 150.652C55.7379 149.038 52.3944 145.954 50.9255 143.235C52.4777 144.278 57.5655 150.556 58.0633 141.339C58.4916 136.13 56.2782 139.035 54.6692 133.966C53.0602 128.896 56.9066 127.649 58.1074 123.96C59.3082 120.272 57.6511 122.025 52.1316 116.174C46.6121 110.323 54.0929 115.712 59.9526 117.736C65.8123 119.76 61.3455 120.132 65.9804 129.256C70.6153 138.38 68.8542 132.665 71.1837 135.522C73.5132 138.378 72.9168 134.092 71.4719 127.962C68.9903 124.46 70.003 125.243 65.8603 112.938C61.6817 105.75 63.2147 110.497 63.731 103.904C64.2474 97.3123 62.8945 100.356 66.3207 92.0558C69.4467 93.0217 68.2819 91.5935 69.951 88.1351C71.6201 84.6768 75.6186 84.0748 79.7933 80.7069C83.9679 77.339 81.7545 80.2446 77.3677 91.4952C72.9809 102.746 77.4958 95.5516 76.1429 98.5949C74.79 101.638 76.4471 99.8854 78.8046 109.887L82.9111 127.309C85.3447 137.633 86.8977 128.412 89.2512 127.857C91.6047 127.303 87.2739 119.469 85.753 113.017C84.232 106.564 85.2967 111.081 89.3953 107.39C93.4939 103.7 87.4661 92.1798 85.4408 90.6139C83.4155 89.048 88.9711 89.7817 91.3886 91.2552C93.8061 92.7287 96.3637 96.5529 101.163 104.617C105.962 112.68 101.127 109.733 100.698 114.943C100.27 120.152 103.512 126.88 102.98 124.621C102.448 122.363 105.333 124.067 107.395 120.516C109.456 116.965 106.667 117.941 112.734 118.576C126.743 120.042 123.545 129.309 122.14 128.619C120.735 127.928 116.392 121.8 113.863 125.121C111.333 128.442 113.611 127.564 114.523 131.436C115.436 135.307 125.55 144.843 127.563 148.114C129.577 151.386 130.021 155.027 124.722 162.406C119.422 169.785 102.315 174.498 94.7746 177.638C87.2338 180.778 66.8969 177.058 63.2266 175.539C59.5562 174.02 57.7071 169.688 57.1868 165.724Z" fill="#FB5858"/>
<path d="M57.487 156.459C57.2134 158.226 56.7705 162.553 57.1868 165.724C57.7071 169.688 59.5562 174.02 63.2266 175.539C66.8969 177.058 87.2338 180.778 94.7746 177.638C102.315 174.498 119.422 169.785 124.722 162.406C130.021 155.027 129.577 151.386 127.563 148.114C125.55 144.843 115.436 135.307 114.523 131.436C113.611 127.564 111.333 128.442 113.863 125.121C116.392 121.8 120.735 127.928 122.14 128.619C123.545 129.309 126.743 120.042 112.734 118.576C106.667 117.941 109.456 116.965 107.395 120.516C105.333 124.067 102.448 122.363 102.98 124.621C103.512 126.88 100.27 120.152 100.698 114.943C101.127 109.733 105.962 112.68 101.163 104.617C96.3637 96.5529 93.8061 92.7287 91.3886 91.2552C88.9711 89.7817 83.4155 89.048 85.4408 90.6139C87.4661 92.1798 93.4939 103.7 89.3953 107.39C85.2967 111.081 84.232 106.564 85.753 113.017C87.2739 119.469 91.6047 127.303 89.2512 127.857C86.8977 128.412 85.3447 137.633 82.9111 127.309C80.4776 116.985 81.162 119.888 78.8046 109.887C76.4471 99.8854 74.79 101.638 76.1429 98.5949C77.4958 95.5516 72.9809 102.746 77.3677 91.4952C81.7545 80.2446 83.9679 77.339 79.7933 80.7069C75.6186 84.0748 71.6201 84.6768 69.951 88.1351C68.2819 91.5935 69.4467 93.0217 66.3207 92.0558C62.8945 100.356 64.2474 97.3123 63.731 103.904C63.2147 110.497 61.6817 105.75 65.8603 112.938C70.003 125.243 68.9903 124.46 71.4719 127.962C72.9168 134.092 73.5132 138.378 71.1837 135.522C68.8542 132.665 70.6153 138.38 65.9804 129.256C61.3455 120.132 65.8123 119.76 59.9526 117.736C54.0929 115.712 46.6121 110.323 52.1316 116.174C57.6511 122.025 59.3082 120.272 58.1074 123.96C56.9066 127.649 53.0602 128.896 54.6692 133.966C56.2782 139.035 58.4916 136.13 58.0633 141.339C57.523 151.342 51.5765 143.095 50.6106 143.095M50.9255 143.235C52.3944 145.954 55.7379 149.038 56.1181 150.652C56.4983 152.265 57.3349 155.814 57.563 156.781" stroke="#D34A4A"/>
</g>
<g filter="url(#filter12_d_9_222)">
<path d="M119.749 154.429C118.887 151.933 116.961 148.902 116.106 147.698L114.976 142.905C114.662 141.573 116.001 138.061 116.085 135.512C115.32 136.855 113.868 143.369 110.096 136.747C107.856 133.058 110.569 134.387 109.889 130.049C109.209 125.712 105.899 126.211 103.648 123.931C101.396 121.651 103.271 122.333 105.2 115.976C107.13 109.618 103.577 116.358 99.9823 120.017C96.388 123.675 99.8349 122.3 99.7694 130.748C99.7039 139.196 98.8988 134.326 98.2275 137.296C97.5561 140.265 96.4153 136.879 95.2227 131.82C95.7685 128.318 95.3073 129.27 93.8336 118.655C94.2757 111.805 94.8925 115.876 92.076 111.199C89.2596 106.522 91.3856 108.27 85.7827 103.406C83.8232 105.274 84.1589 103.789 81.6454 101.852C79.1318 99.9143 75.947 100.946 71.6104 100.001C67.2738 99.0553 69.9866 100.383 77.3907 107.071C84.7948 113.758 78.7934 110.113 80.9194 111.861C83.0454 113.608 81.1705 112.926 83.1163 121.181L86.5059 135.561C88.5145 144.082 83.9596 137.848 82.011 138.307C80.0624 138.766 80.379 131.383 79.1236 126.058C77.8682 120.732 78.747 124.46 74.3477 123.248C69.9483 122.036 70.1612 111.305 71.0837 109.401C72.0061 107.497 68.1608 110.09 66.9136 112.07C65.6663 114.051 65.1833 117.819 64.6047 125.545C64.0261 133.27 66.5205 129.309 68.7611 132.998C71.0017 136.686 71.0836 142.85 70.6442 140.986C70.2048 139.122 68.6956 141.446 65.8574 139.585C63.0191 137.724 65.4458 137.416 61.1851 140.124C51.3466 146.378 57.1378 152.041 57.9238 151.012C58.7098 149.984 59.665 143.855 62.7652 145.373C65.8655 146.891 63.8542 147.084 64.6074 150.28C65.3606 153.475 61.387 164.25 61.1032 167.409C60.8194 170.568 61.8346 173.421 68.4855 176.913C75.1363 180.404 89.5515 177.569 96.2979 177.103C103.044 176.637 116.739 166.382 118.898 163.905C121.057 161.429 120.827 157.548 119.749 154.429Z" fill="#FB9158"/>
</g>
<g filter="url(#filter13_d_9_222)">
<path d="M68.9174 166.56C68.6843 164.695 68.9948 162.142 69.1792 161.098L68.3753 157.688C68.152 156.74 66.0983 154.95 65.2071 153.36C66.1636 153.962 69.276 157.619 69.6603 152.184C69.9689 149.112 68.5691 150.842 67.6099 147.868C66.6507 144.894 69.0523 144.128 69.8288 141.944C70.6053 139.761 69.5608 140.808 66.1766 137.405C62.7924 134.003 67.3998 137.117 71.0266 138.262C74.6534 139.407 71.8731 139.663 74.6808 145.001C77.4884 150.339 76.4399 146.986 77.865 148.65C79.2902 150.315 78.9542 147.794 78.1056 144.194C76.5911 142.151 77.2144 142.604 74.7386 135.387C72.1989 131.185 73.1135 133.97 73.4881 130.082C73.8626 126.193 72.9968 127.997 75.1944 123.079C77.1301 123.623 76.4175 122.791 77.4833 120.74C78.5491 118.688 81.0401 118.301 83.663 116.283C86.2859 114.265 84.8861 115.995 82.0673 122.659C79.2485 129.324 82.114 125.048 81.2482 126.852C80.3823 128.656 81.4268 127.61 82.8114 133.484L85.2232 143.716C86.6524 149.779 87.6928 144.334 89.1606 143.988C90.6283 143.642 87.9993 139.061 87.1061 135.272C86.2128 131.482 86.8381 134.135 89.4163 131.927C91.9946 129.719 88.3404 122.981 87.0939 122.074C85.8474 121.168 89.2955 121.555 90.7866 122.404C92.2778 123.252 93.8369 125.485 96.7552 130.197C99.6735 134.91 96.6913 133.212 96.3827 136.285C96.0741 139.358 98.0352 143.296 97.7226 141.97C97.4099 140.643 99.1903 141.624 100.501 139.515C101.811 137.406 100.069 138.004 103.836 138.329C112.534 139.078 110.471 144.565 109.603 144.169C108.735 143.774 106.085 140.199 104.485 142.176C102.885 144.153 104.308 143.617 104.844 145.891C105.38 148.165 111.591 153.701 112.816 155.612C114.042 157.524 114.288 159.666 110.934 164.056C107.579 168.447 96.9045 171.363 92.1906 173.275C87.4767 175.186 74.8626 173.159 72.5929 172.294C70.3232 171.429 69.2087 168.891 68.9174 166.56Z" fill="#FBAF58"/>
</g>
<g filter="url(#filter14_d_9_222)">
<path d="M230.861 165.72C230.847 163.026 230.018 159.471 229.606 158.031L230.064 153.024C230.192 151.633 232.528 148.657 233.405 146.213C232.278 147.27 228.896 153.119 227.487 145.494C226.573 141.203 228.663 143.358 229.394 138.937C230.126 134.516 226.912 133.941 225.547 131.011C224.182 128.08 225.7 129.341 229.474 123.796C233.249 118.251 227.855 123.648 223.389 126.044C218.922 128.44 222.537 128.21 219.829 136.378C217.121 144.545 217.903 139.567 216.353 142.231C214.802 144.894 214.809 141.248 215.294 135.962C216.895 132.743 216.171 133.518 218.136 122.758C220.691 116.26 219.985 120.403 218.85 114.969C217.714 109.535 219.13 111.909 215.479 105.403C213.084 106.587 213.859 105.255 212.145 102.573C210.431 99.8918 207.166 99.8732 203.457 97.57C199.748 95.2667 201.837 97.4216 206.58 106.271C211.322 115.121 206.922 109.669 208.338 112.043C209.754 114.416 208.236 113.155 207.446 121.779L206.07 136.801C205.255 145.702 203.002 138.203 201.058 138.025C199.114 137.847 201.721 130.792 202.23 125.228C202.74 119.665 202.383 123.559 198.699 120.978C195.016 118.396 198.576 108.063 200.024 106.513C201.473 104.962 197.109 106.245 195.336 107.766C193.563 109.287 191.936 112.785 188.981 120.088C186.025 127.391 189.571 124.349 190.484 128.641C191.398 132.932 189.542 138.933 189.72 136.986C189.898 135.039 187.776 136.808 185.738 134.097C183.7 131.386 186.038 131.863 181.254 133.125C170.207 136.041 173.781 143.381 174.829 142.635C175.878 141.89 178.68 136.256 181.068 138.718C183.456 141.181 181.538 140.725 181.232 144.063C180.926 147.401 173.879 156.574 172.627 159.545C171.375 162.516 171.419 165.605 176.467 171.117C181.516 176.629 195.719 178.49 202.096 180.196C208.473 181.903 224.335 176.343 227.105 174.633C229.875 172.923 230.88 169.088 230.861 165.72Z" fill="#FB5858"/>
<path d="M229.606 158.031C230.018 159.471 230.847 163.026 230.861 165.72C230.88 169.088 229.875 172.923 227.105 174.633C224.335 176.343 208.473 181.903 202.096 180.196C195.719 178.49 181.516 176.629 176.467 171.117C171.419 165.605 171.375 162.516 172.627 159.545C173.879 156.574 180.926 147.401 181.232 144.063C181.538 140.725 183.456 141.181 181.068 138.718C178.68 136.256 175.878 141.89 174.829 142.635C173.781 143.381 170.207 136.041 181.254 133.125C186.038 131.863 183.7 131.386 185.738 134.097C187.776 136.808 189.898 135.039 189.72 136.986C189.542 138.933 191.398 132.932 190.484 128.641C189.571 124.349 186.025 127.391 188.981 120.088C191.936 112.785 193.563 109.287 195.336 107.766C197.109 106.245 201.473 104.962 200.024 106.513C198.576 108.063 195.016 118.396 198.699 120.978C202.383 123.559 202.74 119.665 202.23 125.228C201.721 130.792 199.114 137.847 201.058 138.025C203.002 138.203 205.255 145.702 206.07 136.801C206.885 127.899 206.656 130.402 207.446 121.779C208.236 113.155 209.754 114.416 208.338 112.043C206.922 109.669 211.322 115.121 206.58 106.271C201.837 97.4216 199.748 95.2667 203.457 97.57C207.166 99.8732 210.431 99.8918 212.145 102.573C213.859 105.255 213.084 106.587 215.479 105.403C219.13 111.909 217.714 109.535 218.85 114.969C219.985 120.403 220.691 116.26 218.136 122.758C216.171 133.518 216.895 132.743 215.294 135.962C214.809 141.248 214.802 144.894 216.353 142.231C217.903 139.567 217.121 144.545 219.829 136.378C222.537 128.21 218.922 128.44 223.389 126.044C227.855 123.648 233.249 118.251 229.474 123.796C225.7 129.341 224.182 128.08 225.547 131.011C226.912 133.941 230.126 134.516 229.394 138.937C228.663 143.358 226.573 141.203 227.487 145.494C229.016 153.769 232.869 146.174 233.642 146.058M233.405 146.213C232.528 148.657 230.192 151.633 230.064 153.024C229.937 154.415 229.656 157.475 229.58 158.309" stroke="#D34A4A"/>
</g>
<g filter="url(#filter15_d_9_222)">
<path d="M179.571 163.865C179.987 161.68 181.196 158.92 181.748 157.813L182.127 153.68C182.232 152.532 180.776 149.766 180.429 147.65C181.188 148.677 183.064 153.933 185.356 147.956C186.744 144.61 184.719 146.045 184.787 142.347C184.856 138.649 187.559 138.665 189.11 136.491C190.662 134.318 189.236 135.114 186.996 130.046C184.755 124.979 188.337 130.169 191.613 132.785C194.89 135.4 191.982 134.671 192.96 141.706C193.938 148.742 194.049 144.584 194.911 146.979C195.774 149.373 196.315 146.413 196.715 142.05C195.894 139.197 196.368 139.934 196.383 130.906C195.279 125.248 195.231 128.717 196.972 124.477C198.713 120.237 197.203 121.951 201.153 117.219C202.925 118.539 202.494 117.342 204.292 115.423C206.091 113.504 208.752 113.979 212.118 112.667C215.484 111.354 213.459 112.79 208.268 119.26C203.078 125.731 207.48 121.966 205.97 123.68C204.461 125.394 205.886 124.599 205.234 131.717L204.099 144.116C203.426 151.463 206.387 145.714 207.996 145.862C209.605 146.009 208.543 139.892 208.963 135.3C209.384 130.708 209.089 133.922 212.476 132.38C215.863 130.838 214.516 121.916 213.57 120.44C212.623 118.964 215.984 120.661 217.198 122.162C218.413 123.662 219.213 126.746 220.523 133.117C221.832 139.488 219.402 136.487 218.014 139.833C216.626 143.179 217.236 148.329 217.383 146.721C217.531 145.114 218.993 146.869 221.059 144.974C223.126 143.08 221.151 143.116 224.856 144.859C233.413 148.884 229.401 154.305 228.659 153.543C227.917 152.78 226.482 147.786 224.168 149.427C221.854 151.067 223.484 150.985 223.232 153.74C222.979 156.495 227.339 164.998 227.913 167.598C228.486 170.197 227.986 172.698 223.048 176.414C218.11 180.129 206.267 179.507 200.818 179.934C195.37 180.362 183.29 173.467 181.291 171.663C179.292 169.859 179.05 166.596 179.571 163.865Z" fill="#FB9158"/>
</g>
<g filter="url(#filter16_d_9_222)">
<path d="M221.568 167.834C221.55 166.251 221.022 164.16 220.76 163.312L221.029 160.372C221.104 159.555 222.551 157.814 223.09 156.38C222.39 156.998 220.301 160.424 219.398 155.939C218.814 153.414 220.124 154.687 220.565 152.092C221.007 149.496 219.001 149.148 218.141 147.422C217.28 145.695 218.23 146.441 220.565 143.196C222.9 139.95 219.555 143.103 216.779 144.496C214.003 145.889 216.255 145.766 214.594 150.556C212.933 155.347 213.404 152.424 212.447 153.984C211.489 155.544 211.481 153.402 211.766 150.297C212.753 148.411 212.304 148.864 213.494 142.548C215.065 138.738 214.639 141.17 213.913 137.973C213.187 134.777 214.077 136.176 211.78 132.341C210.291 133.029 210.77 132.249 209.693 130.668C208.615 129.086 206.58 129.065 204.26 127.699C201.941 126.333 203.25 127.606 206.236 132.822C209.221 138.038 206.46 134.82 207.351 136.219C208.241 137.619 207.291 136.873 206.827 141.937L206.019 150.76C205.54 155.988 204.111 151.573 202.899 151.462C201.686 151.351 203.288 147.214 203.587 143.947C203.886 140.679 203.677 142.967 201.372 141.438C199.067 139.909 201.252 133.848 202.15 132.942C203.048 132.036 200.332 132.776 199.232 133.663C198.132 134.551 197.129 136.601 195.311 140.883C193.493 145.164 195.693 143.389 196.276 145.913C196.86 148.438 195.723 151.958 195.828 150.815C195.932 149.671 194.615 150.704 193.336 149.104C192.056 147.504 193.515 147.792 190.537 148.518C183.661 150.195 185.913 154.519 186.564 154.085C187.215 153.65 188.943 150.349 190.44 151.804C191.937 153.259 190.739 152.985 190.56 154.945C190.38 156.906 186.018 162.272 185.247 164.014C184.477 165.755 184.514 167.571 187.679 170.826C190.844 174.082 199.704 175.222 203.685 176.246C207.665 177.27 217.535 174.055 219.256 173.059C220.977 172.064 221.591 169.813 221.568 167.834Z" fill="#FBAF58"/>
</g>
<path d="M237.604 218.565C235.747 224.591 238.223 225.014 244.249 226.871C250.275 228.728 256.666 225.349 258.523 219.323C260.38 213.297 257.2 206.997 251.174 205.14C256.422 226.88 242.372 227.58 237.604 218.565Z" fill="#845151"/>
<path d="M228.424 215.706C226.567 221.732 229.043 222.155 235.069 224.012C241.095 225.869 247.486 222.49 249.343 216.463C251.2 210.437 248.02 204.138 241.994 202.281C247.242 224.02 233.192 224.721 228.424 215.706Z" fill="#845151"/>
<path d="M224.208 216.406C222.936 220.533 224.841 220.888 229.499 222.323C234.157 223.759 238.964 221.576 240.236 217.448C241.508 213.321 238.919 208.879 234.261 207.443C238.815 222.63 228.08 222.768 224.208 216.406Z" fill="#845151"/>
<path d="M64.2818 217.565C66.139 223.591 63.663 224.014 57.6369 225.871C51.6108 227.728 45.2201 224.349 43.3628 218.323C41.5056 212.297 44.6858 205.997 50.7119 204.14C45.4644 225.88 59.5144 226.58 64.2818 217.565Z" fill="#845151"/>
<path d="M73.4617 214.706C75.319 220.732 72.843 221.155 66.8169 223.012C60.7908 224.869 54.4001 221.49 52.5428 215.463C50.6856 209.437 53.8657 203.138 59.8918 201.281C54.6443 223.02 68.6943 223.721 73.4617 214.706Z" fill="#845151"/>
<path d="M77.6779 215.406C78.9501 219.533 77.0447 219.888 72.387 221.323C67.7292 222.759 62.922 220.576 61.6499 216.448C60.3777 212.321 62.9674 207.879 67.6252 206.443C63.0711 221.63 73.8063 221.768 77.6779 215.406Z" fill="#845151"/>
<defs>
<filter id="filter0_d_9_222" x="17.4541" y="276.91" width="127.309" height="112.43" filterUnits="userSpaceOnUse" color-interpolation-filters="sRGB">
<feFlood flood-opacity="0" result="BackgroundImageFix"/>
<feColorMatrix in="SourceAlpha" type="matrix" values="0 0 0 0 0 0 0 0 0 0 0 0 0 0 0 0 0 0 127 0" result="hardAlpha"/>
<feOffset dx="6" dy="8"/>
<feGaussianBlur stdDeviation="2"/>
<feComposite in2="hardAlpha" operator="out"/>
<feColorMatrix type="matrix" values="0 0 0 0 1 0 0 0 0 0.663608 0 0 0 0 0.0388788 0 0 0 0.15 0"/>
<feBlend mode="normal" in2="BackgroundImageFix" result="effect1_dropShadow_9_222"/>
<feBlend mode="normal" in="SourceGraphic" in2="effect1_dropShadow_9_222" result="shape"/>
</filter>
<filter id="filter1_d_9_222" x="25.8233" y="297.729" width="106.001" height="90.9014" filterUnits="userSpaceOnUse" color-interpolation-filters="sRGB">
<feFlood flood-opacity="0" result="BackgroundImageFix"/>
<feColorMatrix in="SourceAlpha" type="matrix" values="0 0 0 0 0 0 0 0 0 0 0 0 0 0 0 0 0 0 127 0" result="hardAlpha"/>
<feOffset dx="6" dy="8"/>
<feGaussianBlur stdDeviation="2"/>
<feComposite in2="hardAlpha" operator="out"/>
<feColorMatrix type="matrix" values="0 0 0 0 1 0 0 0 0 0.663608 0 0 0 0 0.0388788 0 0 0 0.15 0"/>
<feBlend mode="normal" in2="BackgroundImageFix" result="effect1_dropShadow_9_222"/>
<feBlend mode="normal" in="SourceGraphic" in2="effect1_dropShadow_9_222" result="shape"/>
</filter>
<filter id="filter2_d_9_222" x="39.8161" y="313.49" width="81.8228" height="70.5795" filterUnits="userSpaceOnUse" color-interpolation-filters="sRGB">
<feFlood flood-opacity="0" result="BackgroundImageFix"/>
<feColorMatrix in="SourceAlpha" type="matrix" values="0 0 0 0 0 0 0 0 0 0 0 0 0 0 0 0 0 0 127 0" result="hardAlpha"/>
<feOffset dx="6" dy="8"/>
<feGaussianBlur stdDeviation="2"/>
<feComposite in2="hardAlpha" operator="out"/>
<feColorMatrix type="matrix" values="0 0 0 0 1 0 0 0 0 0.663608 0 0 0 0 0.0388788 0 0 0 0.15 0"/>
<feBlend mode="normal" in2="BackgroundImageFix" result="effect1_dropShadow_9_222"/>
<feBlend mode="normal" in="SourceGraphic" in2="effect1_dropShadow_9_222" result="shape"/>
</filter>
<filter id="filter3_d_9_222" x="197.192" y="294.216" width="101.677" height="96.798" filterUnits="userSpaceOnUse" color-interpolation-filters="sRGB">
<feFlood flood-opacity="0" result="BackgroundImageFix"/>
<feColorMatrix in="SourceAlpha" type="matrix" values="0 0 0 0 0 0 0 0 0 0 0 0 0 0 0 0 0 0 127 0" result="hardAlpha"/>
<feOffset dx="6" dy="8"/>
<feGaussianBlur stdDeviation="2"/>
<feComposite in2="hardAlpha" operator="out"/>
<feColorMatrix type="matrix" values="0 0 0 0 1 0 0 0 0 0.663608 0 0 0 0 0.0388788 0 0 0 0.15 0"/>
<feBlend mode="normal" in2="BackgroundImageFix" result="effect1_dropShadow_9_222"/>
<feBlend mode="normal" in="SourceGraphic" in2="effect1_dropShadow_9_222" result="shape"/>
</filter>
<filter id="filter4_d_9_222" x="208.606" y="310.224" width="85.155" height="79.7296" filterUnits="userSpaceOnUse" color-interpolation-filters="sRGB">
<feFlood flood-opacity="0" result="BackgroundImageFix"/>
<feColorMatrix in="SourceAlpha" type="matrix" values="0 0 0 0 0 0 0 0 0 0 0 0 0 0 0 0 0 0 127 0" result="hardAlpha"/>
<feOffset dx="6" dy="8"/>
<feGaussianBlur stdDeviation="2"/>
<feComposite in2="hardAlpha" operator="out"/>
<feColorMatrix type="matrix" values="0 0 0 0 1 0 0 0 0 0.663608 0 0 0 0 0.0388788 0 0 0 0.15 0"/>
<feBlend mode="normal" in2="BackgroundImageFix" result="effect1_dropShadow_9_222"/>
<feBlend mode="normal" in="SourceGraphic" in2="effect1_dropShadow_9_222" result="shape"/>
</filter>
<filter id="filter5_d_9_222" x="216.72" y="325.189" width="66.4774" height="61.2553" filterUnits="userSpaceOnUse" color-interpolation-filters="sRGB">
<feFlood flood-opacity="0" result="BackgroundImageFix"/>
<feColorMatrix in="SourceAlpha" type="matrix" values="0 0 0 0 0 0 0 0 0 0 0 0 0 0 0 0 0 0 127 0" result="hardAlpha"/>
<feOffset dx="6" dy="8"/>
<feGaussianBlur stdDeviation="2"/>
<feComposite in2="hardAlpha" operator="out"/>
<feColorMatrix type="matrix" values="0 0 0 0 1 0 0 0 0 0.663608 0 0 0 0 0.0388788 0 0 0 0.15 0"/>
<feBlend mode="normal" in2="BackgroundImageFix" result="effect1_dropShadow_9_222"/>
<feBlend mode="normal" in="SourceGraphic" in2="effect1_dropShadow_9_222" result="shape"/>
</filter>
<filter id="filter6_d_9_222" x="57" y="211" width="89.6689" height="73.0045" filterUnits="userSpaceOnUse" color-interpolation-filters="sRGB">
<feFlood flood-opacity="0" result="BackgroundImageFix"/>
<feColorMatrix in="SourceAlpha" type="matrix" values="0 0 0 0 0 0 0 0 0 0 0 0 0 0 0 0 0 0 127 0" result="hardAlpha"/>
<feOffset dx="6" dy="1"/>
<feGaussianBlur stdDeviation="2.75"/>
<feComposite in2="hardAlpha" operator="out"/>
<feColorMatrix type="matrix" values="0 0 0 0 0.752087 0 0 0 0 0.503312 0 0 0 0 0.503312 0 0 0 0.18 0"/>
<feBlend mode="normal" in2="BackgroundImageFix" result="effect1_dropShadow_9_222"/>
<feBlend mode="normal" in="SourceGraphic" in2="effect1_dropShadow_9_222" result="shape"/>
</filter>
<filter id="filter7_d_9_222" x="167" y="211" width="89.6689" height="73.0045" filterUnits="userSpaceOnUse" color-interpolation-filters="sRGB">
<feFlood flood-opacity="0" result="BackgroundImageFix"/>
<feColorMatrix in="SourceAlpha" type="matrix" values="0 0 0 0 0 0 0 0 0 0 0 0 0 0 0 0 0 0 127 0" result="hardAlpha"/>
<feOffset dx="6" dy="1"/>
<feGaussianBlur stdDeviation="2.75"/>
<feComposite in2="hardAlpha" operator="out"/>
<feColorMatrix type="matrix" values="0 0 0 0 0.752087 0 0 0 0 0.503312 0 0 0 0 0.503312 0 0 0 0.18 0"/>
<feBlend mode="normal" in2="BackgroundImageFix" result="effect1_dropShadow_9_222"/>
<feBlend mode="normal" in="SourceGraphic" in2="effect1_dropShadow_9_222" result="shape"/>
</filter>
<filter id="filter8_d_9_222" x="91.8575" y="0" width="139.643" height="187.774" filterUnits="userSpaceOnUse" color-interpolation-filters="sRGB">
<feFlood flood-opacity="0" result="BackgroundImageFix"/>
<feColorMatrix in="SourceAlpha" type="matrix" values="0 0 0 0 0 0 0 0 0 0 0 0 0 0 0 0 0 0 127 0" result="hardAlpha"/>
<feOffset dx="6" dy="8"/>
<feGaussianBlur stdDeviation="2"/>
<feComposite in2="hardAlpha" operator="out"/>
<feColorMatrix type="matrix" values="0 0 0 0 1 0 0 0 0 0.663608 0 0 0 0 0.0388788 0 0 0 0.15 0"/>
<feBlend mode="normal" in2="BackgroundImageFix" result="effect1_dropShadow_9_222"/>
<feBlend mode="normal" in="SourceGraphic" in2="effect1_dropShadow_9_222" result="shape"/>
</filter>
<filter id="filter9_d_9_222" x="98.227" y="30.6686" width="116.415" height="156.258" filterUnits="userSpaceOnUse" color-interpolation-filters="sRGB">
<feFlood flood-opacity="0" result="BackgroundImageFix"/>
<feColorMatrix in="SourceAlpha" type="matrix" values="0 0 0 0 0 0 0 0 0 0 0 0 0 0 0 0 0 0 127 0" result="hardAlpha"/>
<feOffset dx="6" dy="8"/>
<feGaussianBlur stdDeviation="2"/>
<feComposite in2="hardAlpha" operator="out"/>
<feColorMatrix type="matrix" values="0 0 0 0 1 0 0 0 0 0.663608 0 0 0 0 0.0388788 0 0 0 0.15 0"/>
<feBlend mode="normal" in2="BackgroundImageFix" result="effect1_dropShadow_9_222"/>
<feBlend mode="normal" in="SourceGraphic" in2="effect1_dropShadow_9_222" result="shape"/>
</filter>
<filter id="filter10_d_9_222" x="112.392" y="63.959" width="90.1571" height="114.645" filterUnits="userSpaceOnUse" color-interpolation-filters="sRGB">
<feFlood flood-opacity="0" result="BackgroundImageFix"/>
<feColorMatrix in="SourceAlpha" type="matrix" values="0 0 0 0 0 0 0 0 0 0 0 0 0 0 0 0 0 0 127 0" result="hardAlpha"/>
<feOffset dx="6" dy="8"/>
<feGaussianBlur stdDeviation="2"/>
<feComposite in2="hardAlpha" operator="out"/>
<feColorMatrix type="matrix" values="0 0 0 0 1 0 0 0 0 0.663608 0 0 0 0 0.0388788 0 0 0 0.15 0"/>
<feBlend mode="normal" in2="BackgroundImageFix" result="effect1_dropShadow_9_222"/>
<feBlend mode="normal" in="SourceGraphic" in2="effect1_dropShadow_9_222" result="shape"/>
</filter>
<filter id="filter11_d_9_222" x="49.7007" y="78.8886" width="89.7603" height="112.472" filterUnits="userSpaceOnUse" color-interpolation-filters="sRGB">
<feFlood flood-opacity="0" result="BackgroundImageFix"/>
<feColorMatrix in="SourceAlpha" type="matrix" values="0 0 0 0 0 0 0 0 0 0 0 0 0 0 0 0 0 0 127 0" result="hardAlpha"/>
<feOffset dx="6" dy="8"/>
<feGaussianBlur stdDeviation="2"/>
<feComposite in2="hardAlpha" operator="out"/>
<feColorMatrix type="matrix" values="0 0 0 0 1 0 0 0 0 0.663608 0 0 0 0 0.0388788 0 0 0 0.15 0"/>
<feBlend mode="normal" in2="BackgroundImageFix" result="effect1_dropShadow_9_222"/>
<feBlend mode="normal" in="SourceGraphic" in2="effect1_dropShadow_9_222" result="shape"/>
</filter>
<filter id="filter12_d_9_222" x="55.5175" y="99.729" width="75.0312" height="90.9014" filterUnits="userSpaceOnUse" color-interpolation-filters="sRGB">
<feFlood flood-opacity="0" result="BackgroundImageFix"/>
<feColorMatrix in="SourceAlpha" type="matrix" values="0 0 0 0 0 0 0 0 0 0 0 0 0 0 0 0 0 0 127 0" result="hardAlpha"/>
<feOffset dx="6" dy="8"/>
<feGaussianBlur stdDeviation="2"/>
<feComposite in2="hardAlpha" operator="out"/>
<feColorMatrix type="matrix" values="0 0 0 0 1 0 0 0 0 0.663608 0 0 0 0 0.0388788 0 0 0 0.15 0"/>
<feBlend mode="normal" in2="BackgroundImageFix" result="effect1_dropShadow_9_222"/>
<feBlend mode="normal" in="SourceGraphic" in2="effect1_dropShadow_9_222" result="shape"/>
</filter>
<filter id="filter13_d_9_222" x="64.9964" y="115.49" width="58.653" height="70.5795" filterUnits="userSpaceOnUse" color-interpolation-filters="sRGB">
<feFlood flood-opacity="0" result="BackgroundImageFix"/>
<feColorMatrix in="SourceAlpha" type="matrix" values="0 0 0 0 0 0 0 0 0 0 0 0 0 0 0 0 0 0 127 0" result="hardAlpha"/>
<feOffset dx="6" dy="8"/>
<feGaussianBlur stdDeviation="2"/>
<feComposite in2="hardAlpha" operator="out"/>
<feColorMatrix type="matrix" values="0 0 0 0 1 0 0 0 0 0.663608 0 0 0 0 0.0388788 0 0 0 0.15 0"/>
<feBlend mode="normal" in2="BackgroundImageFix" result="effect1_dropShadow_9_222"/>
<feBlend mode="normal" in="SourceGraphic" in2="effect1_dropShadow_9_222" result="shape"/>
</filter>
<filter id="filter14_d_9_222" x="171.444" y="96.2127" width="72.4318" height="96.8051" filterUnits="userSpaceOnUse" color-interpolation-filters="sRGB">
<feFlood flood-opacity="0" result="BackgroundImageFix"/>
<feColorMatrix in="SourceAlpha" type="matrix" values="0 0 0 0 0 0 0 0 0 0 0 0 0 0 0 0 0 0 127 0" result="hardAlpha"/>
<feOffset dx="6" dy="8"/>
<feGaussianBlur stdDeviation="2"/>
<feComposite in2="hardAlpha" operator="out"/>
<feColorMatrix type="matrix" values="0 0 0 0 1 0 0 0 0 0.663608 0 0 0 0 0.0388788 0 0 0 0.15 0"/>
<feBlend mode="normal" in2="BackgroundImageFix" result="effect1_dropShadow_9_222"/>
<feBlend mode="normal" in="SourceGraphic" in2="effect1_dropShadow_9_222" result="shape"/>
</filter>
<filter id="filter15_d_9_222" x="179.335" y="112.224" width="60.9102" height="79.7296" filterUnits="userSpaceOnUse" color-interpolation-filters="sRGB">
<feFlood flood-opacity="0" result="BackgroundImageFix"/>
<feColorMatrix in="SourceAlpha" type="matrix" values="0 0 0 0 0 0 0 0 0 0 0 0 0 0 0 0 0 0 127 0" result="hardAlpha"/>
<feOffset dx="6" dy="8"/>
<feGaussianBlur stdDeviation="2"/>
<feComposite in2="hardAlpha" operator="out"/>
<feColorMatrix type="matrix" values="0 0 0 0 1 0 0 0 0 0.663608 0 0 0 0 0.0388788 0 0 0 0.15 0"/>
<feBlend mode="normal" in2="BackgroundImageFix" result="effect1_dropShadow_9_222"/>
<feBlend mode="normal" in="SourceGraphic" in2="effect1_dropShadow_9_222" result="shape"/>
</filter>
<filter id="filter16_d_9_222" x="184.832" y="127.189" width="48.258" height="61.2553" filterUnits="userSpaceOnUse" color-interpolation-filters="sRGB">
<feFlood flood-opacity="0" result="BackgroundImageFix"/>
<feColorMatrix in="SourceAlpha" type="matrix" values="0 0 0 0 0 0 0 0 0 0 0 0 0 0 0 0 0 0 127 0" result="hardAlpha"/>
<feOffset dx="6" dy="8"/>
<feGaussianBlur stdDeviation="2"/>
<feComposite in2="hardAlpha" operator="out"/>
<feColorMatrix type="matrix" values="0 0 0 0 1 0 0 0 0 0.663608 0 0 0 0 0.0388788 0 0 0 0.15 0"/>
<feBlend mode="normal" in2="BackgroundImageFix" result="effect1_dropShadow_9_222"/>
<feBlend mode="normal" in="SourceGraphic" in2="effect1_dropShadow_9_222" result="shape"/>
</filter>
<linearGradient id="paint0_linear_9_222" x1="95.8031" y1="232.889" x2="99.8031" y2="318.889" gradientUnits="userSpaceOnUse">
<stop stop-color="white"/>
<stop offset="1" stop-color="#D2E6FA"/>
</linearGradient>
<linearGradient id="paint1_linear_9_222" x1="206.366" y1="232.889" x2="202.366" y2="318.889" gradientUnits="userSpaceOnUse">
<stop stop-color="white"/>
<stop offset="1" stop-color="#D2E6FA"/>
</linearGradient>
<linearGradient id="paint2_linear_9_222" x1="100" y1="260.5" x2="99.2802" y2="223.5" gradientUnits="userSpaceOnUse">
<stop stop-color="#FFB25A"/>
<stop offset="1" stop-color="#DD2326"/>
</linearGradient>
<linearGradient id="paint3_linear_9_222" x1="191" y1="262.5" x2="190.28" y2="225.5" gradientUnits="userSpaceOnUse">
<stop stop-color="#FFB25A"/>
<stop offset="1" stop-color="#DD2326"/>
</linearGradient>
<linearGradient id="paint4_linear_9_222" x1="96.913" y1="239.231" x2="97.5185" y2="259.499" gradientUnits="userSpaceOnUse">
<stop stop-color="#A02E2E"/>
<stop offset="1" stop-color="#EFB263"/>
</linearGradient>
<linearGradient id="paint5_linear_9_222" x1="187.913" y1="241.231" x2="188.519" y2="261.499" gradientUnits="userSpaceOnUse">
<stop stop-color="#A02E2E"/>
<stop offset="1" stop-color="#EFB263"/>
</linearGradient>
</defs>
</svg>
