<svg width="247" height="360" viewBox="0 0 247 360" fill="none" xmlns="http://www.w3.org/2000/svg">
<circle cx="119.5" cy="156.498" r="119.5" fill="#A1E27B"/>
<path d="M0 155.998H239L232.5 246.998L239 325.998H0L9.5 246.998L0 155.998Z" fill="#A1E27B"/>
<circle cx="34" cy="325.998" r="34" fill="#A1E27B"/>
<circle cx="205" cy="325.998" r="34" fill="#A1E27B"/>
<circle cx="93" cy="325.998" r="34" fill="#A1E27B"/>
<circle cx="145" cy="325.998" r="34" fill="#A1E27B"/>
<path d="M85.1484 115.304C80.6438 113.989 76.3255 113.706 72.9951 114.293C69.6297 114.887 67.4392 116.327 66.8636 118.297C66.2881 120.267 67.3587 122.661 69.8754 124.972C72.3661 127.26 76.1572 129.347 80.6617 130.663C85.1664 131.978 89.4846 132.261 92.8151 131.674C96.1804 131.08 98.3709 129.64 98.9465 127.67C99.522 125.7 98.4514 123.306 95.9347 120.995C93.444 118.707 89.653 116.62 85.1484 115.304Z" stroke="#73C369"/>
<path d="M143.504 106.981C138.803 107.059 134.585 107.958 131.569 109.329C130.061 110.014 128.876 110.808 128.078 111.655C127.283 112.5 126.895 113.372 126.91 114.238C126.924 115.104 127.34 115.963 128.163 116.78C128.988 117.601 130.199 118.355 131.729 118.99C134.789 120.26 139.035 121.019 143.735 120.941C148.435 120.864 152.654 119.965 155.669 118.594C157.178 117.909 158.363 117.115 159.161 116.268C159.956 115.423 160.343 114.551 160.329 113.685C160.315 112.819 159.899 111.96 159.076 111.142C158.251 110.322 157.04 109.568 155.51 108.932C152.45 107.662 148.204 106.904 143.504 106.981Z" stroke="#73C369"/>
<ellipse cx="156" cy="235.618" rx="12" ry="19.5" fill="#F6BFBF"/>
<ellipse cx="157" cy="235.618" rx="12" ry="19.5" fill="#FBD4D4"/>
<path d="M58.5 216.124C100.156 215.599 188.274 216.439 207.5 223.998" stroke="#73C369" stroke-width="4"/>
<g filter="url(#filter0_d_9_225)">
<path d="M242.523 11.998C228.523 12.998 210.723 9.09799 217.523 25.498C226.023 45.998 233.523 42.998 216.523 52.998C205.861 59.2695 259.023 85.998 223.523 86.498C188.023 86.998 224.523 111.498 224.523 123.498" stroke="#739E6D" stroke-width="4"/>
</g>
<g filter="url(#filter1_d_9_225)">
<path d="M46 1.99799C60.1936 2.63476 78.2398 0.151349 71.3458 10.5944C62.7283 23.6482 55.1245 21.7379 72.3595 28.1056C83.1685 32.0991 29.272 49.1191 65.2628 49.4374C101.254 49.7558 64.2489 65.3567 64.2489 72.998" stroke="#739E6D" stroke-width="4"/>
</g>
<g filter="url(#filter2_d_9_225)">
<path d="M9 56.0433C21.9676 56.6214 31.6722 53.5293 25.3736 63.0114C17.5004 74.8639 10.5534 73.1294 26.2998 78.9112C36.1752 82.5372 -1.20733 78.1843 22.0389 98.28C35.6477 110.044 15.2985 111.06 15.2985 117.998" stroke="#739E6D" stroke-width="4"/>
</g>
<g filter="url(#filter3_d_9_225)">
<path d="M205 46.0308C192.715 46.4505 183.521 44.2062 189.488 51.0883C196.947 59.691 203.528 58.4321 188.611 62.6285C179.255 65.2603 214.67 62.1009 192.647 76.6865C179.755 85.2252 199.033 85.9623 199.033 90.998" stroke="#739E6D" stroke-width="4"/>
</g>
<path d="M206.604 145.063C204.747 151.089 207.223 151.512 213.249 153.369C219.275 155.226 225.666 151.847 227.523 145.821C229.38 139.795 226.2 133.495 220.174 131.638C225.421 153.378 211.372 154.078 206.604 145.063Z" fill="#845151"/>
<path d="M197.424 142.204C195.567 148.23 198.043 148.653 204.069 150.51C210.095 152.367 216.486 148.988 218.343 142.962C220.2 136.935 217.02 130.636 210.994 128.779C216.242 150.518 202.192 151.219 197.424 142.204Z" fill="#845151"/>
<path d="M193.208 142.904C191.936 147.031 193.841 147.386 198.499 148.821C203.157 150.257 207.964 148.074 209.236 143.946C210.508 139.819 207.918 135.377 203.261 133.941C207.815 149.128 197.08 149.266 193.208 142.904Z" fill="#845151"/>
<path d="M26.2817 136.063C28.139 142.089 25.663 142.512 19.6369 144.369C13.6108 146.226 7.22008 142.847 5.36283 136.821C3.50558 130.795 6.68575 124.495 12.7119 122.638C7.46437 144.378 21.5143 145.078 26.2817 136.063Z" fill="#845151"/>
<path d="M35.4617 133.204C37.3189 139.23 34.8429 139.653 28.8168 141.51C22.7907 143.367 16.4 139.988 14.5428 133.962C12.6855 127.935 15.8657 121.636 21.8918 119.779C16.6443 141.518 30.6943 142.219 35.4617 133.204Z" fill="#845151"/>
<path d="M39.6779 133.904C40.9501 138.031 39.0448 138.386 34.387 139.821C29.7292 141.257 24.9221 139.074 23.6499 134.946C22.3777 130.819 24.9674 126.377 29.6252 124.941C25.0711 140.128 35.8063 140.266 39.6779 133.904Z" fill="#845151"/>
<g filter="url(#filter4_d_9_225)">
<path d="M24.3205 153.627C20.5865 115.804 61.9069 136.821 84.9349 136.821C104.169 139.295 108.513 139.097 104.779 176.92C104.779 198.788 66.0623 184.281 43.0343 184.281C20.0063 184.281 24.3205 175.495 24.3205 153.627Z" fill="url(#paint0_linear_9_225)"/>
</g>
<g filter="url(#filter5_d_9_225)">
<path d="M126.321 155.627C122.587 117.804 163.907 138.821 186.935 138.821C206.169 141.295 210.513 141.097 206.779 178.92C206.779 200.788 168.062 186.281 145.034 186.281C122.006 186.281 126.321 177.495 126.321 155.627Z" fill="url(#paint1_linear_9_225)"/>
</g>
<ellipse cx="48.1385" cy="154.259" rx="21.5" ry="23" transform="rotate(13.0509 48.1385 154.259)" fill="url(#paint2_linear_9_225)"/>
<ellipse cx="150.138" cy="156.259" rx="21.5" ry="23" transform="rotate(13.0509 150.138 156.259)" fill="url(#paint3_linear_9_225)"/>
<ellipse cx="46.7082" cy="148.895" rx="13.5" ry="15.5" transform="rotate(22.7031 46.7082 148.895)" fill="url(#paint4_linear_9_225)"/>
<ellipse cx="148.708" cy="150.895" rx="13.5" ry="15.5" transform="rotate(22.7031 148.708 150.895)" fill="url(#paint5_linear_9_225)"/>
<ellipse cx="44.78" cy="158.435" rx="14.5" ry="11" transform="rotate(22.7031 44.78 158.435)" fill="#BFFFC3" fill-opacity="0.44"/>
<ellipse cx="146.78" cy="160.435" rx="14.5" ry="11" transform="rotate(22.7031 146.78 160.435)" fill="#BFFFC3" fill-opacity="0.44"/>
<circle cx="59.1648" cy="139.429" r="3.5" transform="rotate(22.7031 59.1648 139.429)" fill="#FFF9F1"/>
<circle cx="161.165" cy="141.429" r="3.5" transform="rotate(22.7031 161.165 141.429)" fill="#FFF9F1"/>
<path d="M36.1039 142.703C35.571 143.977 34.5195 144.75 33.7553 144.431C32.991 144.111 32.8035 142.819 33.3364 141.545C33.8693 140.272 34.9208 139.498 35.685 139.818C36.4493 140.138 36.6368 141.43 36.1039 142.703Z" fill="#FFF9F1"/>
<path d="M138.104 144.703C137.571 145.977 136.52 146.75 135.755 146.431C134.991 146.111 134.803 144.819 135.336 143.545C135.869 142.272 136.921 141.498 137.685 141.818C138.449 142.138 138.637 143.43 138.104 144.703Z" fill="#FFF9F1"/>
<defs>
<filter id="filter0_d_9_225" x="202" y="10.0031" width="44.6647" height="121.495" filterUnits="userSpaceOnUse" color-interpolation-filters="sRGB">
<feFlood flood-opacity="0" result="BackgroundImageFix"/>
<feColorMatrix in="SourceAlpha" type="matrix" values="0 0 0 0 0 0 0 0 0 0 0 0 0 0 0 0 0 0 127 0" result="hardAlpha"/>
<feOffset dy="4"/>
<feGaussianBlur stdDeviation="2"/>
<feComposite in2="hardAlpha" operator="out"/>
<feColorMatrix type="matrix" values="0 0 0 0 0.609325 0 0 0 0 0.91443 0 0 0 0 0.587531 0 0 0 0.25 0"/>
<feBlend mode="normal" in2="BackgroundImageFix" result="effect1_dropShadow_9_225"/>
<feBlend mode="normal" in="SourceGraphic" in2="effect1_dropShadow_9_225" result="shape"/>
</filter>
<filter id="filter1_d_9_225" x="41.9104" y="0" width="45.0897" height="80.998" filterUnits="userSpaceOnUse" color-interpolation-filters="sRGB">
<feFlood flood-opacity="0" result="BackgroundImageFix"/>
<feColorMatrix in="SourceAlpha" type="matrix" values="0 0 0 0 0 0 0 0 0 0 0 0 0 0 0 0 0 0 127 0" result="hardAlpha"/>
<feOffset dy="4"/>
<feGaussianBlur stdDeviation="2"/>
<feComposite in2="hardAlpha" operator="out"/>
<feColorMatrix type="matrix" values="0 0 0 0 0.609325 0 0 0 0 0.91443 0 0 0 0 0.587531 0 0 0 0.25 0"/>
<feBlend mode="normal" in2="BackgroundImageFix" result="effect1_dropShadow_9_225"/>
<feBlend mode="normal" in="SourceGraphic" in2="effect1_dropShadow_9_225" result="shape"/>
</filter>
<filter id="filter2_d_9_225" x="4.91089" y="53.9977" width="29.0895" height="72.0002" filterUnits="userSpaceOnUse" color-interpolation-filters="sRGB">
<feFlood flood-opacity="0" result="BackgroundImageFix"/>
<feColorMatrix in="SourceAlpha" type="matrix" values="0 0 0 0 0 0 0 0 0 0 0 0 0 0 0 0 0 0 127 0" result="hardAlpha"/>
<feOffset dy="4"/>
<feGaussianBlur stdDeviation="2"/>
<feComposite in2="hardAlpha" operator="out"/>
<feColorMatrix type="matrix" values="0 0 0 0 0.609325 0 0 0 0 0.91443 0 0 0 0 0.587531 0 0 0 0.25 0"/>
<feBlend mode="normal" in2="BackgroundImageFix" result="effect1_dropShadow_9_225"/>
<feBlend mode="normal" in="SourceGraphic" in2="effect1_dropShadow_9_225" result="shape"/>
</filter>
<filter id="filter3_d_9_225" x="180.999" y="43.9978" width="28.0696" height="55.0217" filterUnits="userSpaceOnUse" color-interpolation-filters="sRGB">
<feFlood flood-opacity="0" result="BackgroundImageFix"/>
<feColorMatrix in="SourceAlpha" type="matrix" values="0 0 0 0 0 0 0 0 0 0 0 0 0 0 0 0 0 0 127 0" result="hardAlpha"/>
<feOffset dy="4"/>
<feGaussianBlur stdDeviation="2"/>
<feComposite in2="hardAlpha" operator="out"/>
<feColorMatrix type="matrix" values="0 0 0 0 0.609325 0 0 0 0 0.91443 0 0 0 0 0.587531 0 0 0 0.25 0"/>
<feBlend mode="normal" in2="BackgroundImageFix" result="effect1_dropShadow_9_225"/>
<feBlend mode="normal" in="SourceGraphic" in2="effect1_dropShadow_9_225" result="shape"/>
</filter>
<filter id="filter4_d_9_225" x="24" y="126.498" width="93.5" height="69" filterUnits="userSpaceOnUse" color-interpolation-filters="sRGB">
<feFlood flood-opacity="0" result="BackgroundImageFix"/>
<feColorMatrix in="SourceAlpha" type="matrix" values="0 0 0 0 0 0 0 0 0 0 0 0 0 0 0 0 0 0 127 0" result="hardAlpha"/>
<feOffset dx="6" dy="1"/>
<feGaussianBlur stdDeviation="2.75"/>
<feComposite in2="hardAlpha" operator="out"/>
<feColorMatrix type="matrix" values="0 0 0 0 0.752087 0 0 0 0 0.503312 0 0 0 0 0.503312 0 0 0 0.18 0"/>
<feBlend mode="normal" in2="BackgroundImageFix" result="effect1_dropShadow_9_225"/>
<feBlend mode="normal" in="SourceGraphic" in2="effect1_dropShadow_9_225" result="shape"/>
</filter>
<filter id="filter5_d_9_225" x="126" y="128.498" width="93.5" height="69" filterUnits="userSpaceOnUse" color-interpolation-filters="sRGB">
<feFlood flood-opacity="0" result="BackgroundImageFix"/>
<feColorMatrix in="SourceAlpha" type="matrix" values="0 0 0 0 0 0 0 0 0 0 0 0 0 0 0 0 0 0 127 0" result="hardAlpha"/>
<feOffset dx="6" dy="1"/>
<feGaussianBlur stdDeviation="2.75"/>
<feComposite in2="hardAlpha" operator="out"/>
<feColorMatrix type="matrix" values="0 0 0 0 0.752087 0 0 0 0 0.503312 0 0 0 0 0.503312 0 0 0 0.18 0"/>
<feBlend mode="normal" in2="BackgroundImageFix" result="effect1_dropShadow_9_225"/>
<feBlend mode="normal" in="SourceGraphic" in2="effect1_dropShadow_9_225" result="shape"/>
</filter>
<linearGradient id="paint0_linear_9_225" x1="66.6011" y1="147.497" x2="70.9415" y2="237.579" gradientUnits="userSpaceOnUse">
<stop stop-color="white"/>
<stop offset="1" stop-color="#D2E6FA"/>
</linearGradient>
<linearGradient id="paint1_linear_9_225" x1="168.601" y1="149.497" x2="172.941" y2="239.579" gradientUnits="userSpaceOnUse">
<stop stop-color="white"/>
<stop offset="1" stop-color="#D2E6FA"/>
</linearGradient>
<linearGradient id="paint2_linear_9_225" x1="48.6385" y1="168.259" x2="47.9187" y2="131.259" gradientUnits="userSpaceOnUse">
<stop stop-color="#AFFFAC"/>
<stop offset="1" stop-color="#4DA027"/>
</linearGradient>
<linearGradient id="paint3_linear_9_225" x1="150.638" y1="170.259" x2="149.919" y2="133.259" gradientUnits="userSpaceOnUse">
<stop stop-color="#AFFFAC"/>
<stop offset="1" stop-color="#4DA027"/>
</linearGradient>
<linearGradient id="paint4_linear_9_225" x1="46.1213" y1="144.126" x2="46.7268" y2="164.395" gradientUnits="userSpaceOnUse">
<stop stop-color="#5D9344"/>
<stop offset="1" stop-color="#5D9590"/>
</linearGradient>
<linearGradient id="paint5_linear_9_225" x1="148.121" y1="146.126" x2="148.727" y2="166.395" gradientUnits="userSpaceOnUse">
<stop stop-color="#5D9344"/>
<stop offset="1" stop-color="#5D9590"/>
</linearGradient>
</defs>
</svg>
