<svg width="348" height="421" viewBox="0 0 348 421" fill="none" xmlns="http://www.w3.org/2000/svg">
<circle cx="174.5" cy="217.5" r="119.5" fill="#FFD9EA"/>
<path d="M55 217H294L287.5 308L294 387H55L64.5 308L55 217Z" fill="#FFD9EA"/>
<circle cx="89" cy="387" r="34" fill="#FFD9EA"/>
<circle cx="260" cy="387" r="34" fill="#FFD9EA"/>
<circle cx="148" cy="387" r="34" fill="#FFD9EA"/>
<circle cx="200" cy="387" r="34" fill="#FFD9EA"/>
<path d="M96.2818 177.065C98.139 183.091 95.663 183.514 89.6369 185.371C83.6108 187.228 77.2201 183.849 75.3628 177.823C73.5056 171.797 76.6858 165.497 82.7119 163.64C77.4644 185.38 91.5144 186.08 96.2818 177.065Z" fill="#845151"/>
<path d="M105.462 174.206C107.319 180.232 104.843 180.655 98.8169 182.512C92.7908 184.369 86.4 180.99 84.5428 174.964C82.6856 168.937 85.8657 162.638 91.8918 160.781C86.6443 182.521 100.694 183.221 105.462 174.206Z" fill="#845151"/>
<path d="M109.678 174.906C110.95 179.033 109.045 179.388 104.387 180.823C99.7292 182.259 94.922 180.076 93.6499 175.948C92.3777 171.821 94.9674 167.379 99.6252 165.943C95.0711 181.13 105.806 181.268 109.678 174.906Z" fill="#845151"/>
<path d="M251.259 179.469C249.402 185.495 251.878 185.918 257.904 187.775C263.93 189.632 270.321 186.253 272.178 180.226C274.035 174.2 270.855 167.901 264.829 166.044C270.077 187.783 256.027 188.484 251.259 179.469Z" fill="#845151"/>
<path d="M242.079 176.609C240.222 182.636 242.698 183.058 248.724 184.916C254.75 186.773 261.141 183.393 262.998 177.367C264.855 171.341 261.675 165.042 255.649 163.185C260.897 184.924 246.847 185.625 242.079 176.609Z" fill="#845151"/>
<path d="M237.863 177.309C236.591 181.437 238.496 181.791 243.154 183.227C247.812 184.662 252.619 182.48 253.891 178.352C255.163 174.224 252.574 169.783 247.916 168.347C252.47 183.534 241.735 183.671 237.863 177.309Z" fill="#845151"/>
<g filter="url(#filter0_d_9_221)">
<path d="M161.581 210.672C165.217 249.523 144.616 223.42 122.193 223.42C99.7702 223.42 76.7452 249.523 80.381 210.672C80.381 188.209 98.5582 170 120.981 170C143.404 170 161.581 188.209 161.581 210.672Z" fill="url(#paint0_linear_9_221)"/>
</g>
<g filter="url(#filter1_d_9_221)">
<path d="M264.586 213.016C268.178 251.24 247.828 225.558 225.678 225.558C203.529 225.558 180.785 251.24 184.376 213.016C184.376 190.916 202.332 173 224.481 173C246.63 173 264.586 190.916 264.586 213.016Z" fill="url(#paint1_linear_9_221)"/>
</g>
<ellipse cx="112.5" cy="196.5" rx="21.5" ry="22.5" fill="url(#paint2_linear_9_221)"/>
<ellipse cx="216.5" cy="199" rx="21.5" ry="23" fill="url(#paint3_linear_9_221)"/>
<ellipse cx="111" cy="194.5" rx="14" ry="15.5" fill="url(#paint4_linear_9_221)"/>
<ellipse cx="214.5" cy="196.5" rx="13.5" ry="15.5" fill="url(#paint5_linear_9_221)"/>
<ellipse cx="112.5" cy="207.5" rx="14.5" ry="10.5" fill="#FFE3BF" fill-opacity="0.44"/>
<ellipse cx="216.5" cy="210" rx="14.5" ry="11" fill="#FFE3BF" fill-opacity="0.44"/>
<ellipse cx="120" cy="182.5" rx="4" ry="3.5" fill="#FFF9F1"/>
<circle cx="223.5" cy="184.5" r="3.5" fill="#FFF9F1"/>
<path d="M99 194.5C99 195.881 98.1046 197 97 197C95.8954 197 95 195.881 95 194.5C95 193.119 95.8954 192 97 192C98.1046 192 99 193.119 99 194.5Z" fill="#FFF9F1"/>
<path d="M202 196.5C202 197.881 201.328 199 200.5 199C199.672 199 199 197.881 199 196.5C199 195.119 199.672 194 200.5 194C201.328 194 202 195.119 202 196.5Z" fill="#FFF9F1"/>
<path d="M155.678 65.1518C154.302 58.9113 159.053 53 165.443 53H185.359C191.483 53 196.168 58.4543 195.245 64.508L192.738 80.9372C192.58 81.9726 192.586 83.0265 192.755 84.0601L195.099 98.3851C196.095 104.472 191.398 110 185.231 110H165.639C159.187 110 154.423 103.979 155.907 97.6997L158.975 84.7221C159.32 83.2595 159.332 81.7378 159.009 80.2701L155.678 65.1518Z" fill="#F9ACB8"/>
<path d="M173 89.6603C166.333 85.8113 166.333 76.1888 173 72.3397L258.5 22.9763C265.167 19.1273 273.5 23.9385 273.5 31.6366L273.5 130.363C273.5 138.061 265.167 142.873 258.5 139.024L173 89.6603Z" fill="#F9ACB8"/>
<path d="M178 89.6603C184.667 85.8113 184.667 76.1888 178 72.3397L92.5 22.9763C85.8333 19.1273 77.5 23.9385 77.5 31.6366L77.5 130.363C77.5 138.061 85.8333 142.873 92.5 139.024L178 89.6603Z" fill="#F9ACB8"/>
<path d="M152.678 61.1518C151.302 54.9113 156.053 49 162.443 49H182.359C188.483 49 193.168 54.4543 192.245 60.508L189.738 76.9372C189.58 77.9726 189.586 79.0265 189.755 80.0601L192.099 94.3851C193.095 100.472 188.398 106 182.231 106H162.639C156.187 106 151.423 99.9794 152.907 93.6997L155.975 80.7221C156.32 79.2595 156.332 77.7378 156.009 76.2701L152.678 61.1518Z" fill="#FFC7D0"/>
<path d="M170 85.6603C163.333 81.8113 163.333 72.1888 170 68.3397L255.5 18.9763C262.167 15.1273 270.5 19.9385 270.5 27.6366L270.5 126.363C270.5 134.061 262.167 138.873 255.5 135.024L170 85.6603Z" fill="#FFC7D0"/>
<path d="M175 85.6603C181.667 81.8113 181.667 72.1888 175 68.3397L89.5 18.9763C82.8333 15.1273 74.5 19.9385 74.5 27.6366L74.5 126.363C74.5 134.061 82.8333 138.873 89.5 135.024L175 85.6603Z" fill="#FFC7D0"/>
<path d="M153 56.5C149 68 151 95.2 153 98M191.5 56.5C192.321 60.7684 192.818 66.5784 193.045 72.5M191.5 98C192.171 97.5973 192.673 94.2549 192.95 89.5M193.045 72.5C198.03 67.8333 209.1 59.2 213.5 62C217.9 64.8 201.79 76.5 193.185 82M193.045 72.5C193.168 75.7098 193.212 78.9524 193.185 82M193.185 82C193.179 82.6771 193.169 83.3446 193.156 84M193.156 84C199.771 82.3333 213.5 80 215.5 84C217.5 88 201.3 89.3333 192.95 89.5M193.156 84C193.117 85.9647 193.048 87.8205 192.95 89.5" stroke="#F9ACB8"/>
<path d="M150.566 72.5C146.224 68.5096 137.428 61.0422 134.638 61.272C133.346 65.8936 134.723 75.7137 150.566 78.0214" stroke="#F9ACB8"/>
<path d="M151 84.5C146.5 83.1667 136.1 81.3 132.5 84.5C128 88.5 150 91.5 151.5 91.5" stroke="#F9ACB8"/>
<ellipse cx="201.31" cy="71.9175" rx="10.4942" ry="3.22784" transform="rotate(-37.2147 201.31 71.9175)" fill="#F9ACB8" fill-opacity="0.45"/>
<ellipse cx="162.451" cy="79.0335" rx="10.4942" ry="22.4869" transform="rotate(-10.5989 162.451 79.0335)" fill="#F9ACB8" fill-opacity="0.45"/>
<ellipse cx="229.031" cy="77.5678" rx="34.922" ry="25.5809" transform="rotate(-10.5989 229.031 77.5678)" fill="#F9ACB8" fill-opacity="0.21"/>
<ellipse cx="114.201" cy="76.7922" rx="34.922" ry="25.5809" transform="rotate(5.46782 114.201 76.7922)" fill="#F9ACB8" fill-opacity="0.21"/>
<ellipse cx="201.88" cy="85.3012" rx="8.81556" ry="1.99463" transform="rotate(-2.00108 201.88 85.3012)" fill="#F9ACB8" fill-opacity="0.45"/>
<ellipse cx="143.038" cy="86.8239" rx="8.81556" ry="1.99463" transform="rotate(12.2798 143.038 86.8239)" fill="#F9ACB8" fill-opacity="0.45"/>
<ellipse cx="143.223" cy="70.9261" rx="8.81556" ry="1.99463" transform="rotate(37.2734 143.223 70.9261)" fill="#F9ACB8" fill-opacity="0.45"/>
<g filter="url(#filter2_d_9_221)">
<path d="M41.8079 115.179C42.3325 114.353 43.6091 114.694 43.6513 115.672L44.418 133.465C44.4368 133.902 44.7367 134.275 45.1588 134.388L61.911 138.868C62.8389 139.116 62.9175 140.402 62.0266 140.761L45.6833 147.351C45.2903 147.509 45.0399 147.898 45.0581 148.321L45.8291 166.214C45.871 167.185 44.6429 167.639 44.0432 166.874L33.2689 153.134C32.9942 152.784 32.5209 152.657 32.108 152.824L15.9142 159.353C15.0127 159.717 14.1751 158.71 14.696 157.89L24.2942 142.769C24.5212 142.411 24.4983 141.95 24.2368 141.616L13.3631 127.749C12.7704 126.994 13.4804 125.918 14.4083 126.166L31.1605 130.645C31.5826 130.758 32.029 130.584 32.2631 130.215L41.8079 115.179Z" fill="#F7DEB0"/>
</g>
<g filter="url(#filter3_d_9_221)">
<path d="M303.489 172.387C303.15 171.467 304.199 170.659 305.002 171.222L315.303 178.452C315.661 178.703 316.141 178.693 316.487 178.426L326.17 170.97C326.93 170.385 327.998 171.102 327.745 172.027L324.449 184.062C324.337 184.47 324.493 184.903 324.839 185.145L335.235 192.442C336.031 193.001 335.642 194.252 334.67 194.261L322.38 194.369C321.933 194.373 321.543 194.673 321.425 195.105L318.178 206.958C317.922 207.896 316.612 207.953 316.276 207.04L311.879 195.124C311.733 194.728 311.354 194.466 310.932 194.47L298.453 194.58C297.494 194.588 297.075 193.373 297.834 192.787L307.518 185.332C307.864 185.065 307.997 184.604 307.846 184.193L303.489 172.387Z" fill="#F7DEB0"/>
</g>
<g filter="url(#filter4_d_9_221)">
<path d="M28.3028 273.651C27.9798 272.74 29.0104 271.946 29.8092 272.491L38.1999 278.219C38.5572 278.463 39.0309 278.45 39.3738 278.186L47.4521 271.966C48.2206 271.374 49.297 272.113 49.0208 273.043L46.1257 282.789C46.002 283.205 46.1615 283.654 46.5205 283.899L54.8988 289.619C55.6985 290.165 55.3331 291.415 54.3653 291.444L44.179 291.753C43.7478 291.766 43.3735 292.054 43.2507 292.467L40.3487 302.236C40.073 303.165 38.7709 303.198 38.4475 302.286L35.0599 292.724C34.9147 292.314 34.5215 292.045 34.087 292.058L23.925 292.366C22.9555 292.395 22.5161 291.165 23.2847 290.574L31.363 284.354C31.7058 284.09 31.84 283.635 31.6955 283.227L28.3028 273.651Z" fill="#F7DEB0"/>
</g>
<ellipse cx="90.5" cy="251" rx="13.5" ry="6" fill="#FF98B5"/>
<ellipse cx="254.5" cy="251" rx="13.5" ry="6" fill="#FF98B5"/>
<defs>
<filter id="filter0_d_9_221" x="80" y="165.5" width="93.5" height="73" filterUnits="userSpaceOnUse" color-interpolation-filters="sRGB">
<feFlood flood-opacity="0" result="BackgroundImageFix"/>
<feColorMatrix in="SourceAlpha" type="matrix" values="0 0 0 0 0 0 0 0 0 0 0 0 0 0 0 0 0 0 127 0" result="hardAlpha"/>
<feOffset dx="6" dy="1"/>
<feGaussianBlur stdDeviation="2.75"/>
<feComposite in2="hardAlpha" operator="out"/>
<feColorMatrix type="matrix" values="0 0 0 0 0.752087 0 0 0 0 0.503312 0 0 0 0 0.503312 0 0 0 0.18 0"/>
<feBlend mode="normal" in2="BackgroundImageFix" result="effect1_dropShadow_9_221"/>
<feBlend mode="normal" in="SourceGraphic" in2="effect1_dropShadow_9_221" result="shape"/>
</filter>
<filter id="filter1_d_9_221" x="184" y="168.5" width="92.5" height="72" filterUnits="userSpaceOnUse" color-interpolation-filters="sRGB">
<feFlood flood-opacity="0" result="BackgroundImageFix"/>
<feColorMatrix in="SourceAlpha" type="matrix" values="0 0 0 0 0 0 0 0 0 0 0 0 0 0 0 0 0 0 127 0" result="hardAlpha"/>
<feOffset dx="6" dy="1"/>
<feGaussianBlur stdDeviation="2.75"/>
<feComposite in2="hardAlpha" operator="out"/>
<feColorMatrix type="matrix" values="0 0 0 0 0.752087 0 0 0 0 0.503312 0 0 0 0 0.503312 0 0 0 0.18 0"/>
<feBlend mode="normal" in2="BackgroundImageFix" result="effect1_dropShadow_9_221"/>
<feBlend mode="normal" in="SourceGraphic" in2="effect1_dropShadow_9_221" result="shape"/>
</filter>
<filter id="filter2_d_9_221" x="9.14578" y="114.713" width="57.507" height="60.5462" filterUnits="userSpaceOnUse" color-interpolation-filters="sRGB">
<feFlood flood-opacity="0" result="BackgroundImageFix"/>
<feColorMatrix in="SourceAlpha" type="matrix" values="0 0 0 0 0 0 0 0 0 0 0 0 0 0 0 0 0 0 127 0" result="hardAlpha"/>
<feOffset dy="4"/>
<feGaussianBlur stdDeviation="2"/>
<feComposite in2="hardAlpha" operator="out"/>
<feColorMatrix type="matrix" values="0 0 0 0 0.935797 0 0 0 0 0.796444 0 0 0 0 0.471288 0 0 0 0.25 0"/>
<feBlend mode="normal" in2="BackgroundImageFix" result="effect1_dropShadow_9_221"/>
<feBlend mode="normal" in="SourceGraphic" in2="effect1_dropShadow_9_221" result="shape"/>
</filter>
<filter id="filter3_d_9_221" x="293.443" y="170.758" width="46.22" height="44.9355" filterUnits="userSpaceOnUse" color-interpolation-filters="sRGB">
<feFlood flood-opacity="0" result="BackgroundImageFix"/>
<feColorMatrix in="SourceAlpha" type="matrix" values="0 0 0 0 0 0 0 0 0 0 0 0 0 0 0 0 0 0 127 0" result="hardAlpha"/>
<feOffset dy="4"/>
<feGaussianBlur stdDeviation="2"/>
<feComposite in2="hardAlpha" operator="out"/>
<feColorMatrix type="matrix" values="0 0 0 0 0.935797 0 0 0 0 0.796444 0 0 0 0 0.471288 0 0 0 0.25 0"/>
<feBlend mode="normal" in2="BackgroundImageFix" result="effect1_dropShadow_9_221"/>
<feBlend mode="normal" in="SourceGraphic" in2="effect1_dropShadow_9_221" result="shape"/>
</filter>
<filter id="filter4_d_9_221" x="18.8925" y="271.754" width="40.4441" height="39.1979" filterUnits="userSpaceOnUse" color-interpolation-filters="sRGB">
<feFlood flood-opacity="0" result="BackgroundImageFix"/>
<feColorMatrix in="SourceAlpha" type="matrix" values="0 0 0 0 0 0 0 0 0 0 0 0 0 0 0 0 0 0 127 0" result="hardAlpha"/>
<feOffset dy="4"/>
<feGaussianBlur stdDeviation="2"/>
<feComposite in2="hardAlpha" operator="out"/>
<feColorMatrix type="matrix" values="0 0 0 0 0.935797 0 0 0 0 0.796444 0 0 0 0 0.471288 0 0 0 0.25 0"/>
<feBlend mode="normal" in2="BackgroundImageFix" result="effect1_dropShadow_9_221"/>
<feBlend mode="normal" in="SourceGraphic" in2="effect1_dropShadow_9_221" result="shape"/>
</filter>
<linearGradient id="paint0_linear_9_221" x1="122.5" y1="204" x2="119" y2="151" gradientUnits="userSpaceOnUse">
<stop stop-color="white"/>
<stop offset="1" stop-color="#D2E6FA"/>
</linearGradient>
<linearGradient id="paint1_linear_9_221" x1="225" y1="217" x2="221" y2="131" gradientUnits="userSpaceOnUse">
<stop stop-color="white"/>
<stop offset="1" stop-color="#D2E6FA"/>
</linearGradient>
<linearGradient id="paint2_linear_9_221" x1="113.097" y1="202.421" x2="112.321" y2="174" gradientUnits="userSpaceOnUse">
<stop stop-color="#FFC77E"/>
<stop offset="1" stop-color="#DD8C23"/>
</linearGradient>
<linearGradient id="paint3_linear_9_221" x1="217.097" y1="205.053" x2="216.286" y2="176.001" gradientUnits="userSpaceOnUse">
<stop stop-color="#FFC77E"/>
<stop offset="1" stop-color="#DD8C23"/>
</linearGradient>
<linearGradient id="paint4_linear_9_221" x1="110.391" y1="189.731" x2="110.975" y2="210.001" gradientUnits="userSpaceOnUse">
<stop stop-color="#A06E2E"/>
<stop offset="1" stop-color="#EFB263"/>
</linearGradient>
<linearGradient id="paint5_linear_9_221" x1="213.913" y1="191.731" x2="214.519" y2="211.999" gradientUnits="userSpaceOnUse">
<stop stop-color="#A06E2E"/>
<stop offset="1" stop-color="#EFB263"/>
</linearGradient>
</defs>
</svg>
