<svg width="252" height="359" viewBox="0 0 252 359" fill="none" xmlns="http://www.w3.org/2000/svg">
<circle cx="124.088" cy="155.5" r="119.5" fill="#E6C9FF"/>
<path d="M4.58765 155H243.588L237.088 246L243.588 325H4.58765L14.0876 246L4.58765 155Z" fill="#E6C9FF"/>
<circle cx="38.5876" cy="325" r="34" fill="#E6C9FF"/>
<circle cx="209.588" cy="325" r="34" fill="#E6C9FF"/>
<circle cx="97.5876" cy="325" r="34" fill="#E6C9FF"/>
<circle cx="149.588" cy="325" r="34" fill="#E6C9FF"/>
<g filter="url(#filter0_d_9_224)">
<path d="M70.4785 118.507C79.8426 116.696 96.7639 118.901 102.893 139.15C110.456 164.138 111.536 159.793 99.6511 175.003C87.7659 190.214 53.0536 191.88 50.8926 181.015C48.7317 170.151 35.9032 145.668 44.547 138.063C74.8003 130.458 73.7198 128.285 85.605 140.236C85.605 163.052 88.8464 171.744 80.2026 175.003C71.5588 178.263 57.6268 162.708 58.5932 159.793C59.6736 156.533 70.4783 144.582 72.6393 148.928C74.3681 152.405 70.4785 161.241 70.4785 163.052" stroke="#574670" stroke-width="4"/>
</g>
<g filter="url(#filter1_d_9_224)">
<path d="M133.292 161.81C130.702 152.631 131.478 135.584 151.141 127.777C175.406 118.142 170.985 117.43 187.14 127.996C203.295 138.562 207.87 173.012 197.225 176.078C186.58 179.143 163.262 193.982 154.957 186.008C144.839 156.5 142.764 157.759 153.675 144.912C176.41 142.996 184.799 139.037 188.773 147.376C192.747 155.716 178.417 170.905 175.431 170.186C172.092 169.384 159.276 159.621 163.425 157.102C166.744 155.088 175.876 158.221 177.681 158.069" stroke="#574670" stroke-width="4"/>
</g>
<g filter="url(#filter2_d_9_224)">
<path d="M126.588 12.5C159.926 12.5 190.064 15.4603 211.827 20.2266C222.721 22.6124 231.435 25.4335 237.389 28.5166C240.368 30.0591 242.582 31.6303 244.033 33.1836C245.477 34.7294 246.088 36.1671 246.088 37.5C246.088 38.8329 245.477 40.2706 244.033 41.8164C242.582 43.3697 240.368 44.9409 237.389 46.4834C231.435 49.5665 222.721 52.3876 211.827 54.7734C190.064 59.5397 159.926 62.5 126.588 62.5C93.2491 62.5 63.1115 59.5397 41.3484 54.7734C30.4547 52.3876 21.7402 49.5665 15.7859 46.4834C12.8069 44.9409 10.5937 43.3697 9.14233 41.8164C7.69797 40.2706 7.08765 38.8329 7.08765 37.5C7.08765 36.1671 7.69797 34.7294 9.14233 33.1836C10.5937 31.6303 12.8069 30.0591 15.7859 28.5166C21.7402 25.4335 30.4547 22.6124 41.3484 20.2266C63.1115 15.4603 93.2491 12.5 126.588 12.5Z" stroke="#F8F8F8" stroke-width="3" shape-rendering="crispEdges"/>
</g>
<g filter="url(#filter3_d_9_224)">
<path d="M28.6336 22.0375C28.9269 21.1037 30.2484 21.1037 30.5417 22.0375L35.8786 39.0291C36.0095 39.4459 36.3958 39.7295 36.8326 39.7295H54.1734C55.1339 39.7295 55.542 40.9518 54.7742 41.5289L40.6876 52.1163C40.3489 52.3709 40.2074 52.8112 40.3343 53.2154L45.7011 70.3021C45.9923 71.2294 44.9232 71.9851 44.1462 71.4011L30.1885 60.9106C29.8326 60.6431 29.3427 60.6431 28.9868 60.9106L15.0291 71.4011C14.2521 71.9851 13.183 71.2294 13.4742 70.3021L18.841 53.2154C18.9679 52.8112 18.8264 52.3709 18.4877 52.1163L4.4011 41.5289C3.63329 40.9518 4.04142 39.7295 5.00191 39.7295H22.3427C22.7795 39.7295 23.1658 39.4459 23.2967 39.0291L28.6336 22.0375Z" fill="#F7DEB0"/>
</g>
<g filter="url(#filter4_d_9_224)">
<path d="M217.637 25.927C217.936 25.0057 219.239 25.0057 219.539 25.9271L223.976 39.5836C224.11 39.9956 224.494 40.2746 224.927 40.2746H239.286C240.255 40.2746 240.658 41.5142 239.874 42.0836L228.257 50.5238C227.907 50.7784 227.76 51.2298 227.894 51.6418L232.331 65.2984C232.631 66.2197 231.576 66.9858 230.792 66.4164L219.175 57.9762C218.825 57.7216 218.35 57.7216 218 57.9762L206.383 66.4164C205.599 66.9858 204.545 66.2197 204.844 65.2984L209.281 51.6418C209.415 51.2298 209.269 50.7784 208.918 50.5238L197.301 42.0836C196.517 41.5142 196.92 40.2746 197.889 40.2746H212.248C212.681 40.2746 213.065 39.9956 213.199 39.5836L217.637 25.927Z" fill="#F7DEB0"/>
</g>
<g filter="url(#filter5_d_9_224)">
<path d="M64.6574 7.35769C64.9904 6.51371 66.1849 6.51371 66.5179 7.35769L69.1546 14.0408C69.3053 14.4227 69.6742 14.6738 70.0849 14.6738H78.1366C79.1515 14.6738 79.521 16.0108 78.6501 16.5319L72.4915 20.2168C72.0714 20.4681 71.8951 20.9865 72.0747 21.4419L74.5011 27.5918C74.8516 28.48 73.8768 29.3072 73.0575 28.8169L66.1011 24.6547C65.7849 24.4656 65.3904 24.4656 65.0742 24.6547L58.1178 28.8169C57.2985 29.3072 56.3237 28.48 56.6742 27.5918L59.1006 21.4419C59.2802 20.9865 59.1039 20.4681 58.6838 20.2168L52.5252 16.5319C51.6543 16.0108 52.0238 14.6738 53.0386 14.6738H61.0904C61.5011 14.6738 61.8699 14.4227 62.0207 14.0408L64.6574 7.35769Z" fill="#F7DEB0"/>
</g>
<g filter="url(#filter6_d_9_224)">
<path d="M179.974 7.67216C180.573 6.99347 181.693 7.3961 181.723 8.30074L181.962 15.5042C181.975 15.9138 182.237 16.2737 182.623 16.4122L190.254 19.1543C191.21 19.498 191.104 20.8839 190.106 21.0772L183.034 22.4472C182.551 22.5406 182.208 22.9708 182.225 23.462L182.443 30.0732C182.475 31.0271 181.279 31.4788 180.672 30.7424L175.478 24.4428C175.245 24.1601 174.876 24.0275 174.517 24.0972L166.501 25.6501C165.564 25.8316 164.929 24.7224 165.561 24.0067L169.937 19.0467C170.263 18.6782 170.272 18.1281 169.959 17.7489L165.377 12.1911C164.73 11.4069 165.53 10.2701 166.486 10.6138L174.117 13.3559C174.503 13.4945 174.934 13.3838 175.205 13.0765L179.974 7.67216Z" fill="#F7DEB0"/>
</g>
<g filter="url(#filter7_d_9_224)">
<path d="M141.101 52.7646C141.7 52.0859 142.821 52.4886 142.851 53.3932L143.089 60.5967C143.102 61.0063 143.364 61.3661 143.75 61.5047L151.381 64.2468C152.337 64.5905 152.231 65.9763 151.233 66.1696L144.161 67.5396C143.679 67.6331 143.336 68.0633 143.352 68.5544L143.571 75.1657C143.602 76.1196 142.407 76.5713 141.799 75.8349L136.605 69.5353C136.372 69.2526 136.003 69.12 135.644 69.1897L127.628 70.7425C126.691 70.9241 126.057 69.8149 126.688 69.0992L131.065 64.1392C131.39 63.7707 131.399 63.2206 131.086 62.8414L126.504 57.2836C125.857 56.4994 126.657 55.3626 127.614 55.7063L135.245 58.4484C135.63 58.587 136.061 58.4762 136.333 58.1689L141.101 52.7646Z" fill="#F7DEB0"/>
</g>
<ellipse cx="43.0876" cy="200" rx="13.5" ry="6" fill="#D6B5EC"/>
<ellipse cx="207.088" cy="200" rx="13.5" ry="6" fill="#D6B5EC"/>
<path d="M194.294 128.594C191.742 132.953 193.78 133.845 198.607 136.67C203.433 139.496 209.414 138.252 211.967 133.893C214.519 129.534 212.83 123.827 208.004 121.001C208.959 139.411 196.895 136.81 194.294 128.594Z" fill="#574670"/>
<path d="M186.947 124.266C184.395 128.625 186.433 129.516 191.259 132.342C196.085 135.168 202.067 133.924 204.619 129.565C207.171 125.206 205.483 119.498 200.656 116.673C201.612 135.083 189.548 132.482 186.947 124.266Z" fill="#574670"/>
<path d="M183.248 123.874C181.499 126.86 183.063 127.568 186.793 129.752C190.524 131.936 194.965 131.286 196.713 128.3C198.462 125.314 196.975 121.212 193.245 119.028C194.668 132.088 185.514 129.786 183.248 123.874Z" fill="#574670"/>
<path d="M39.8809 139.673C42.4331 144.033 40.3952 144.924 35.5688 147.75C30.7425 150.575 24.761 149.332 22.2089 144.973C19.6567 140.613 21.3454 134.906 26.1717 132.08C25.2159 150.49 37.2803 147.89 39.8809 139.673Z" fill="#574670"/>
<path d="M47.2283 135.345C49.7805 139.704 47.7426 140.596 42.9162 143.421C38.0899 146.247 32.1085 145.004 29.5563 140.644C27.0041 136.285 28.6928 130.578 33.5191 127.752C32.5633 146.162 44.6277 143.562 47.2283 135.345Z" fill="#574670"/>
<path d="M50.9276 134.953C52.6758 137.939 51.1122 138.648 47.3818 140.832C43.6514 143.016 39.2101 142.366 37.4619 139.379C35.7136 136.393 37.1999 132.291 40.9303 130.107C39.507 143.168 48.6608 140.865 50.9276 134.953Z" fill="#574670"/>
<defs>
<filter id="filter0_d_9_224" x="35.5876" y="116" width="78.9998" height="81.9998" filterUnits="userSpaceOnUse" color-interpolation-filters="sRGB">
<feFlood flood-opacity="0" result="BackgroundImageFix"/>
<feColorMatrix in="SourceAlpha" type="matrix" values="0 0 0 0 0 0 0 0 0 0 0 0 0 0 0 0 0 0 127 0" result="hardAlpha"/>
<feOffset dy="4"/>
<feGaussianBlur stdDeviation="2"/>
<feComposite in2="hardAlpha" operator="out"/>
<feColorMatrix type="matrix" values="0 0 0 0 0.580869 0 0 0 0 0.391895 0 0 0 0 0.609942 0 0 0 0.25 0"/>
<feBlend mode="normal" in2="BackgroundImageFix" result="effect1_dropShadow_9_224"/>
<feBlend mode="normal" in="SourceGraphic" in2="effect1_dropShadow_9_224" result="shape"/>
</filter>
<filter id="filter1_d_9_224" x="126.223" y="118.31" width="82.7524" height="80.0234" filterUnits="userSpaceOnUse" color-interpolation-filters="sRGB">
<feFlood flood-opacity="0" result="BackgroundImageFix"/>
<feColorMatrix in="SourceAlpha" type="matrix" values="0 0 0 0 0 0 0 0 0 0 0 0 0 0 0 0 0 0 127 0" result="hardAlpha"/>
<feOffset dy="4"/>
<feGaussianBlur stdDeviation="2"/>
<feComposite in2="hardAlpha" operator="out"/>
<feColorMatrix type="matrix" values="0 0 0 0 0.580869 0 0 0 0 0.391895 0 0 0 0 0.609942 0 0 0 0.25 0"/>
<feBlend mode="normal" in2="BackgroundImageFix" result="effect1_dropShadow_9_224"/>
<feBlend mode="normal" in="SourceGraphic" in2="effect1_dropShadow_9_224" result="shape"/>
</filter>
<filter id="filter2_d_9_224" x="1.58765" y="11" width="250" height="61" filterUnits="userSpaceOnUse" color-interpolation-filters="sRGB">
<feFlood flood-opacity="0" result="BackgroundImageFix"/>
<feColorMatrix in="SourceAlpha" type="matrix" values="0 0 0 0 0 0 0 0 0 0 0 0 0 0 0 0 0 0 127 0" result="hardAlpha"/>
<feOffset dy="4"/>
<feGaussianBlur stdDeviation="2"/>
<feComposite in2="hardAlpha" operator="out"/>
<feColorMatrix type="matrix" values="0 0 0 0 0 0 0 0 0 0 0 0 0 0 0 0 0 0 0.15 0"/>
<feBlend mode="normal" in2="BackgroundImageFix" result="effect1_dropShadow_9_224"/>
<feBlend mode="normal" in="SourceGraphic" in2="effect1_dropShadow_9_224" result="shape"/>
</filter>
<filter id="filter3_d_9_224" x="0" y="21.3372" width="59.1753" height="58.2691" filterUnits="userSpaceOnUse" color-interpolation-filters="sRGB">
<feFlood flood-opacity="0" result="BackgroundImageFix"/>
<feColorMatrix in="SourceAlpha" type="matrix" values="0 0 0 0 0 0 0 0 0 0 0 0 0 0 0 0 0 0 127 0" result="hardAlpha"/>
<feOffset dy="4"/>
<feGaussianBlur stdDeviation="2"/>
<feComposite in2="hardAlpha" operator="out"/>
<feColorMatrix type="matrix" values="0 0 0 0 0.935797 0 0 0 0 0.796444 0 0 0 0 0.471288 0 0 0 0.25 0"/>
<feBlend mode="normal" in2="BackgroundImageFix" result="effect1_dropShadow_9_224"/>
<feBlend mode="normal" in="SourceGraphic" in2="effect1_dropShadow_9_224" result="shape"/>
</filter>
<filter id="filter4_d_9_224" x="192.887" y="25.2361" width="51.4014" height="49.3759" filterUnits="userSpaceOnUse" color-interpolation-filters="sRGB">
<feFlood flood-opacity="0" result="BackgroundImageFix"/>
<feColorMatrix in="SourceAlpha" type="matrix" values="0 0 0 0 0 0 0 0 0 0 0 0 0 0 0 0 0 0 127 0" result="hardAlpha"/>
<feOffset dy="4"/>
<feGaussianBlur stdDeviation="2"/>
<feComposite in2="hardAlpha" operator="out"/>
<feColorMatrix type="matrix" values="0 0 0 0 0.935797 0 0 0 0 0.796444 0 0 0 0 0.471288 0 0 0 0.25 0"/>
<feBlend mode="normal" in2="BackgroundImageFix" result="effect1_dropShadow_9_224"/>
<feBlend mode="normal" in="SourceGraphic" in2="effect1_dropShadow_9_224" result="shape"/>
</filter>
<filter id="filter5_d_9_224" x="48.0369" y="6.7247" width="35.1014" height="30.2385" filterUnits="userSpaceOnUse" color-interpolation-filters="sRGB">
<feFlood flood-opacity="0" result="BackgroundImageFix"/>
<feColorMatrix in="SourceAlpha" type="matrix" values="0 0 0 0 0 0 0 0 0 0 0 0 0 0 0 0 0 0 127 0" result="hardAlpha"/>
<feOffset dy="4"/>
<feGaussianBlur stdDeviation="2"/>
<feComposite in2="hardAlpha" operator="out"/>
<feColorMatrix type="matrix" values="0 0 0 0 0.935797 0 0 0 0 0.796444 0 0 0 0 0.471288 0 0 0 0.25 0"/>
<feBlend mode="normal" in2="BackgroundImageFix" result="effect1_dropShadow_9_224"/>
<feBlend mode="normal" in="SourceGraphic" in2="effect1_dropShadow_9_224" result="shape"/>
</filter>
<filter id="filter6_d_9_224" x="161.143" y="7.33203" width="33.7729" height="31.7765" filterUnits="userSpaceOnUse" color-interpolation-filters="sRGB">
<feFlood flood-opacity="0" result="BackgroundImageFix"/>
<feColorMatrix in="SourceAlpha" type="matrix" values="0 0 0 0 0 0 0 0 0 0 0 0 0 0 0 0 0 0 127 0" result="hardAlpha"/>
<feOffset dy="4"/>
<feGaussianBlur stdDeviation="2"/>
<feComposite in2="hardAlpha" operator="out"/>
<feColorMatrix type="matrix" values="0 0 0 0 0.935797 0 0 0 0 0.796444 0 0 0 0 0.471288 0 0 0 0.25 0"/>
<feBlend mode="normal" in2="BackgroundImageFix" result="effect1_dropShadow_9_224"/>
<feBlend mode="normal" in="SourceGraphic" in2="effect1_dropShadow_9_224" result="shape"/>
</filter>
<filter id="filter7_d_9_224" x="122.27" y="52.4245" width="33.773" height="31.7765" filterUnits="userSpaceOnUse" color-interpolation-filters="sRGB">
<feFlood flood-opacity="0" result="BackgroundImageFix"/>
<feColorMatrix in="SourceAlpha" type="matrix" values="0 0 0 0 0 0 0 0 0 0 0 0 0 0 0 0 0 0 127 0" result="hardAlpha"/>
<feOffset dy="4"/>
<feGaussianBlur stdDeviation="2"/>
<feComposite in2="hardAlpha" operator="out"/>
<feColorMatrix type="matrix" values="0 0 0 0 0.935797 0 0 0 0 0.796444 0 0 0 0 0.471288 0 0 0 0.25 0"/>
<feBlend mode="normal" in2="BackgroundImageFix" result="effect1_dropShadow_9_224"/>
<feBlend mode="normal" in="SourceGraphic" in2="effect1_dropShadow_9_224" result="shape"/>
</filter>
</defs>
</svg>
