<svg width="1056" height="1056" viewBox="0 0 1056 1056" fill="none" xmlns="http://www.w3.org/2000/svg">
<g filter="url(#filter0_d_10_226)">
<mask id="path-1-inside-1_10_226" fill="white">
<path d="M915.939 388.135C883.392 297.687 820.278 221.446 737.5 172.58C654.722 123.714 557.476 105.292 462.56 120.496C367.645 135.7 281.019 183.574 217.645 255.851C154.272 328.128 118.13 420.268 115.462 516.357C112.795 612.445 143.769 706.449 203.036 782.13C262.302 857.811 346.138 910.418 440.064 930.864C533.99 951.31 632.108 938.312 717.47 894.113C802.832 849.915 870.078 777.293 907.593 688.79L527.804 527.804L915.939 388.135Z"/>
</mask>
<path d="M915.939 388.135C883.392 297.687 820.278 221.446 737.5 172.58C654.722 123.714 557.476 105.292 462.56 120.496C367.645 135.7 281.019 183.574 217.645 255.851C154.272 328.128 118.13 420.268 115.462 516.357C112.795 612.445 143.769 706.449 203.036 782.13C262.302 857.811 346.138 910.418 440.064 930.864C533.99 951.31 632.108 938.312 717.47 894.113C802.832 849.915 870.078 777.293 907.593 688.79L527.804 527.804L915.939 388.135Z" fill="#FAEDB4"/>
<path d="M915.939 388.135C883.392 297.687 820.278 221.446 737.5 172.58C654.722 123.714 557.476 105.292 462.56 120.496C367.645 135.7 281.019 183.574 217.645 255.851C154.272 328.128 118.13 420.268 115.462 516.357C112.795 612.445 143.769 706.449 203.036 782.13C262.302 857.811 346.138 910.418 440.064 930.864C533.99 951.31 632.108 938.312 717.47 894.113C802.832 849.915 870.078 777.293 907.593 688.79L527.804 527.804L915.939 388.135Z" stroke="#DCDCA7" stroke-width="6" mask="url(#path-1-inside-1_10_226)"/>
</g>
<path d="M593.052 277.102C602.847 308.067 589.789 310.24 558.01 319.783C526.231 329.326 492.529 311.961 482.734 280.996C472.94 250.032 489.711 217.663 521.49 208.12C493.817 319.827 567.911 323.426 593.052 277.102Z" fill="#845151"/>
<path d="M641.464 262.41C651.258 293.375 638.201 295.548 606.421 305.091C574.642 314.634 540.94 297.269 531.146 266.304C521.351 235.34 538.122 202.971 569.902 193.428C542.228 305.135 616.322 308.734 641.464 262.41Z" fill="#845151"/>
<path d="M663.698 266.007C670.407 287.217 660.359 289.037 635.796 296.413C611.233 303.79 585.882 292.575 579.173 271.365C572.464 250.154 586.121 227.331 610.684 219.955C586.668 297.992 643.281 298.698 663.698 266.007Z" fill="#845151"/>
<g filter="url(#filter1_d_10_226)">
<path d="M746.639 389.531C730.462 450.929 667.798 385.287 614.021 363.308C568.178 344.572 530.001 339.993 563.618 285.722C578.013 252.283 633.278 242.993 687.055 264.972C740.833 286.95 761.033 356.092 746.639 389.531Z" fill="url(#paint0_linear_10_226)"/>
</g>
<ellipse cx="691" cy="329" rx="45" ry="47" fill="url(#paint1_linear_10_226)"/>
<ellipse cx="700.5" cy="329.5" rx="29.5" ry="32.5" fill="url(#paint2_linear_10_226)"/>
<ellipse cx="695.5" cy="348" rx="30.5" ry="22" fill="#FFBBBB" fill-opacity="0.44"/>
<ellipse cx="683.5" cy="302" rx="8.5" ry="7" fill="#FFF9F1"/>
<path d="M730 341.5C730 344.538 727.985 347 725.5 347C723.015 347 721 344.538 721 341.5C721 338.462 723.015 336 725.5 336C727.985 336 730 338.462 730 341.5Z" fill="#FFF9F1"/>
<defs>
<filter id="filter0_d_10_226" x="81.3035" y="109.303" width="878.635" height="903.001" filterUnits="userSpaceOnUse" color-interpolation-filters="sRGB">
<feFlood flood-opacity="0" result="BackgroundImageFix"/>
<feColorMatrix in="SourceAlpha" type="matrix" values="0 0 0 0 0 0 0 0 0 0 0 0 0 0 0 0 0 0 127 0" result="hardAlpha"/>
<feOffset dx="5" dy="33"/>
<feGaussianBlur stdDeviation="19.5"/>
<feComposite in2="hardAlpha" operator="out"/>
<feColorMatrix type="matrix" values="0 0 0 0 0.962507 0 0 0 0 0.801933 0 0 0 0 0.618421 0 0 0 0.25 0"/>
<feBlend mode="normal" in2="BackgroundImageFix" result="effect1_dropShadow_10_226"/>
<feBlend mode="normal" in="SourceGraphic" in2="effect1_dropShadow_10_226" result="shape"/>
</filter>
<filter id="filter1_d_10_226" x="550.825" y="248.556" width="211.815" height="173.045" filterUnits="userSpaceOnUse" color-interpolation-filters="sRGB">
<feFlood flood-opacity="0" result="BackgroundImageFix"/>
<feColorMatrix in="SourceAlpha" type="matrix" values="0 0 0 0 0 0 0 0 0 0 0 0 0 0 0 0 0 0 127 0" result="hardAlpha"/>
<feOffset dx="6" dy="1"/>
<feGaussianBlur stdDeviation="2.75"/>
<feComposite in2="hardAlpha" operator="out"/>
<feColorMatrix type="matrix" values="0 0 0 0 0.752087 0 0 0 0 0.503312 0 0 0 0 0.503312 0 0 0 0.18 0"/>
<feBlend mode="normal" in2="BackgroundImageFix" result="effect1_dropShadow_10_226"/>
<feBlend mode="normal" in="SourceGraphic" in2="effect1_dropShadow_10_226" result="shape"/>
</filter>
<linearGradient id="paint0_linear_10_226" x1="668.909" y1="317.075" x2="698.175" y2="236.081" gradientUnits="userSpaceOnUse">
<stop stop-color="white"/>
<stop offset="1" stop-color="#D2E6FA"/>
</linearGradient>
<linearGradient id="paint1_linear_10_226" x1="692.25" y1="341.368" x2="690.632" y2="281.999" gradientUnits="userSpaceOnUse">
<stop stop-color="#FFA0A0"/>
<stop offset="1" stop-color="#FF1818"/>
</linearGradient>
<linearGradient id="paint2_linear_10_226" x1="699.217" y1="319.5" x2="700.436" y2="362.002" gradientUnits="userSpaceOnUse">
<stop stop-color="#A0332E"/>
<stop offset="1" stop-color="#F4AB91"/>
</linearGradient>
</defs>
</svg>
